<?xml version="1.0" encoding="utf-8"?>
<!-- Generator: Adobe Illustrator 25.4.8, SVG Export Plug-In . SVG Version: 6.00 Build 0)  -->
<svg version="1.1" id="Layer_1" xmlns="http://www.w3.org/2000/svg" xmlns:xlink="http://www.w3.org/1999/xlink" x="0px" y="0px"
	 viewBox="0 0 144 144" style="enable-background:new 0 0 144 144;" xml:space="preserve">
<style type="text/css">
	.st0{fill:url(#SVGID_1_);}
	.st1{fill:url(#SVGID_00000159472428700023863190000014516416154920557731_);}
	.st2{fill:url(#SVGID_00000133503233502752403870000002294354576635044533_);}
	.st3{fill:#FFFFFF;}
	.st4{fill:#626262;}
	.st5{fill:url(#SVGID_00000056390610396071006040000015456124138536267160_);}
	.st6{opacity:0.1;fill:url(#SVGID_00000042727712174424682020000007153377859640976300_);enable-background:new    ;}
	.st7{opacity:0.1;fill:url(#SVGID_00000070082890464205488090000003316373044892558758_);enable-background:new    ;}
	.st8{fill:#FFFFFF;stroke:#231F20;stroke-width:0.5;}
	.st9{fill:#7F7F7F;}
	.st10{fill:none;}
	.st11{fill:none;stroke:#231F20;stroke-width:0.3;stroke-linecap:round;stroke-dasharray:0,14.6;}
	.st12{fill:none;stroke:#231F20;stroke-width:0.44;stroke-linecap:round;stroke-dasharray:0,14.6;}
	.st13{fill:none;stroke:#231F20;stroke-width:0.59;stroke-linecap:round;stroke-dasharray:0,14.6;}
	.st14{fill:none;stroke:#231F20;stroke-width:0.73;stroke-linecap:round;stroke-dasharray:0,14.6;}
	.st15{fill:none;stroke:#231F20;stroke-width:0.88;stroke-linecap:round;stroke-dasharray:0,14.6;}
	.st16{fill:none;stroke:#231F20;stroke-width:1.02;stroke-linecap:round;stroke-dasharray:0,14.6;}
	.st17{fill:none;stroke:#231F20;stroke-width:1.17;stroke-linecap:round;stroke-dasharray:0,14.6;}
	.st18{fill:none;stroke:#231F20;stroke-width:1.31;stroke-linecap:round;stroke-dasharray:0,14.6;}
	.st19{fill:none;stroke:#231F20;stroke-width:1.46;stroke-linecap:round;stroke-dasharray:0,14.6;}
	.st20{fill:none;stroke:#231F20;stroke-width:1.6;stroke-linecap:round;stroke-dasharray:0,14.6;}
	.st21{fill:none;stroke:#231F20;stroke-width:1.74;stroke-linecap:round;stroke-dasharray:0,14.6;}
	.st22{fill:none;stroke:#231F20;stroke-width:1.89;stroke-linecap:round;stroke-dasharray:0,14.6;}
	.st23{fill:none;stroke:#231F20;stroke-width:2.03;stroke-linecap:round;stroke-dasharray:0,14.6;}
	.st24{fill:none;stroke:#231F20;stroke-width:2.18;stroke-linecap:round;stroke-dasharray:0,14.6;}
	.st25{fill:none;stroke:#231F20;stroke-width:2.32;stroke-linecap:round;stroke-dasharray:0,14.6;}
	.st26{fill:none;stroke:#231F20;stroke-width:2.47;stroke-linecap:round;stroke-dasharray:0,14.6;}
	.st27{fill:none;stroke:#231F20;stroke-width:2.61;stroke-linecap:round;stroke-dasharray:0,14.6;}
	.st28{fill:none;stroke:#231F20;stroke-width:2.75;stroke-linecap:round;stroke-dasharray:0,14.6;}
	.st29{fill:none;stroke:#231F20;stroke-width:2.9;stroke-linecap:round;stroke-dasharray:0,14.6;}
	.st30{fill:none;stroke:#231F20;stroke-width:3.04;stroke-linecap:round;stroke-dasharray:0,14.6;}
	.st31{fill:none;stroke:#231F20;stroke-width:3.19;stroke-linecap:round;stroke-dasharray:0,14.6;}
	.st32{fill:none;stroke:#231F20;stroke-width:3.33;stroke-linecap:round;stroke-dasharray:0,14.6;}
	.st33{fill:none;stroke:#231F20;stroke-width:3.48;stroke-linecap:round;stroke-dasharray:0,14.6;}
	.st34{fill:none;stroke:#231F20;stroke-width:3.62;stroke-linecap:round;stroke-dasharray:0,14.6;}
	.st35{fill:none;stroke:#231F20;stroke-width:3.77;stroke-linecap:round;stroke-dasharray:0,14.6;}
	.st36{fill:none;stroke:#231F20;stroke-width:3.91;stroke-linecap:round;stroke-dasharray:0,14.6;}
	.st37{fill:none;stroke:#231F20;stroke-width:4.05;stroke-linecap:round;stroke-dasharray:0,14.6;}
	.st38{fill:none;stroke:#231F20;stroke-width:4.2;stroke-linecap:round;stroke-dasharray:0,14.6;}
	.st39{fill:none;stroke:#231F20;stroke-width:4.34;stroke-linecap:round;stroke-dasharray:0,14.6;}
	.st40{fill:none;stroke:#231F20;stroke-width:4.49;stroke-linecap:round;stroke-dasharray:0,14.6;}
	.st41{fill:none;stroke:#231F20;stroke-width:4.63;stroke-linecap:round;stroke-dasharray:0,14.6;}
	.st42{fill:none;stroke:#231F20;stroke-width:4.78;stroke-linecap:round;stroke-dasharray:0,14.6;}
	.st43{fill:none;stroke:#231F20;stroke-width:4.92;stroke-linecap:round;stroke-dasharray:0,14.6;}
	.st44{fill:none;stroke:#231F20;stroke-width:5.07;stroke-linecap:round;stroke-dasharray:0,14.6;}
	.st45{fill:none;stroke:#231F20;stroke-width:5.21;stroke-linecap:round;stroke-dasharray:0,14.6;}
	.st46{fill:none;stroke:#231F20;stroke-width:5.35;stroke-linecap:round;stroke-dasharray:0,14.6;}
	.st47{fill:none;stroke:#231F20;stroke-width:5.5;stroke-linecap:round;stroke-dasharray:0,14.6;}
	.st48{fill:none;stroke:#231F20;stroke-width:5.64;stroke-linecap:round;stroke-dasharray:0,14.6;}
	.st49{fill:none;stroke:#231F20;stroke-width:5.79;stroke-linecap:round;stroke-dasharray:0,14.6;}
	.st50{fill:none;stroke:#231F20;stroke-width:5.93;stroke-linecap:round;stroke-dasharray:0,14.6;}
	.st51{fill:none;stroke:#231F20;stroke-width:6.08;stroke-linecap:round;stroke-dasharray:0,14.6;}
	.st52{fill:none;stroke:#231F20;stroke-width:6.22;stroke-linecap:round;stroke-dasharray:0,14.6;}
	.st53{fill:none;stroke:#231F20;stroke-width:6.37;stroke-linecap:round;stroke-dasharray:0,14.6;}
	.st54{fill:none;stroke:#231F20;stroke-width:6.51;stroke-linecap:round;stroke-dasharray:0,14.6;}
	.st55{fill:none;stroke:#231F20;stroke-width:6.65;stroke-linecap:round;stroke-dasharray:0,14.6;}
	.st56{fill:none;stroke:#231F20;stroke-width:6.8;stroke-linecap:round;stroke-dasharray:0,14.6;}
	.st57{fill:none;stroke:#231F20;stroke-width:6.94;stroke-linecap:round;stroke-dasharray:0,14.6;}
	.st58{fill:none;stroke:#231F20;stroke-width:7.09;stroke-linecap:round;stroke-dasharray:0,14.6;}
	.st59{fill:none;stroke:#231F20;stroke-width:7.23;stroke-linecap:round;stroke-dasharray:0,14.6;}
	.st60{fill:none;stroke:#231F20;stroke-width:0.37;stroke-linecap:round;stroke-dasharray:0,14.6;}
	.st61{fill:none;stroke:#231F20;stroke-width:0.52;stroke-linecap:round;stroke-dasharray:0,14.6;}
	.st62{fill:none;stroke:#231F20;stroke-width:0.66;stroke-linecap:round;stroke-dasharray:0,14.6;}
	.st63{fill:none;stroke:#231F20;stroke-width:0.81;stroke-linecap:round;stroke-dasharray:0,14.6;}
	.st64{fill:none;stroke:#231F20;stroke-width:0.95;stroke-linecap:round;stroke-dasharray:0,14.6;}
	.st65{fill:none;stroke:#231F20;stroke-width:1.09;stroke-linecap:round;stroke-dasharray:0,14.6;}
	.st66{fill:none;stroke:#231F20;stroke-width:1.24;stroke-linecap:round;stroke-dasharray:0,14.6;}
	.st67{fill:none;stroke:#231F20;stroke-width:1.38;stroke-linecap:round;stroke-dasharray:0,14.6;}
	.st68{fill:none;stroke:#231F20;stroke-width:1.53;stroke-linecap:round;stroke-dasharray:0,14.6;}
	.st69{fill:none;stroke:#231F20;stroke-width:1.67;stroke-linecap:round;stroke-dasharray:0,14.6;}
	.st70{fill:none;stroke:#231F20;stroke-width:1.82;stroke-linecap:round;stroke-dasharray:0,14.6;}
	.st71{fill:none;stroke:#231F20;stroke-width:1.96;stroke-linecap:round;stroke-dasharray:0,14.6;}
	.st72{fill:none;stroke:#231F20;stroke-width:2.11;stroke-linecap:round;stroke-dasharray:0,14.6;}
	.st73{fill:none;stroke:#231F20;stroke-width:2.25;stroke-linecap:round;stroke-dasharray:0,14.6;}
	.st74{fill:none;stroke:#231F20;stroke-width:2.39;stroke-linecap:round;stroke-dasharray:0,14.6;}
	.st75{fill:none;stroke:#231F20;stroke-width:2.54;stroke-linecap:round;stroke-dasharray:0,14.6;}
	.st76{fill:none;stroke:#231F20;stroke-width:2.68;stroke-linecap:round;stroke-dasharray:0,14.6;}
	.st77{fill:none;stroke:#231F20;stroke-width:2.83;stroke-linecap:round;stroke-dasharray:0,14.6;}
	.st78{fill:none;stroke:#231F20;stroke-width:2.97;stroke-linecap:round;stroke-dasharray:0,14.6;}
	.st79{fill:none;stroke:#231F20;stroke-width:3.12;stroke-linecap:round;stroke-dasharray:0,14.6;}
	.st80{fill:none;stroke:#231F20;stroke-width:3.26;stroke-linecap:round;stroke-dasharray:0,14.6;}
	.st81{fill:none;stroke:#231F20;stroke-width:3.4;stroke-linecap:round;stroke-dasharray:0,14.6;}
	.st82{fill:none;stroke:#231F20;stroke-width:3.55;stroke-linecap:round;stroke-dasharray:0,14.6;}
	.st83{fill:none;stroke:#231F20;stroke-width:3.69;stroke-linecap:round;stroke-dasharray:0,14.6;}
	.st84{fill:none;stroke:#231F20;stroke-width:3.84;stroke-linecap:round;stroke-dasharray:0,14.6;}
	.st85{fill:none;stroke:#231F20;stroke-width:3.98;stroke-linecap:round;stroke-dasharray:0,14.6;}
	.st86{fill:none;stroke:#231F20;stroke-width:4.13;stroke-linecap:round;stroke-dasharray:0,14.6;}
	.st87{fill:none;stroke:#231F20;stroke-width:4.27;stroke-linecap:round;stroke-dasharray:0,14.6;}
	.st88{fill:none;stroke:#231F20;stroke-width:4.42;stroke-linecap:round;stroke-dasharray:0,14.6;}
	.st89{fill:none;stroke:#231F20;stroke-width:4.56;stroke-linecap:round;stroke-dasharray:0,14.6;}
	.st90{fill:none;stroke:#231F20;stroke-width:4.7;stroke-linecap:round;stroke-dasharray:0,14.6;}
	.st91{fill:none;stroke:#231F20;stroke-width:4.85;stroke-linecap:round;stroke-dasharray:0,14.6;}
	.st92{fill:none;stroke:#231F20;stroke-width:4.99;stroke-linecap:round;stroke-dasharray:0,14.6;}
	.st93{fill:none;stroke:#231F20;stroke-width:5.14;stroke-linecap:round;stroke-dasharray:0,14.6;}
	.st94{fill:none;stroke:#231F20;stroke-width:5.28;stroke-linecap:round;stroke-dasharray:0,14.6;}
	.st95{fill:none;stroke:#231F20;stroke-width:5.43;stroke-linecap:round;stroke-dasharray:0,14.6;}
	.st96{fill:none;stroke:#231F20;stroke-width:5.57;stroke-linecap:round;stroke-dasharray:0,14.6;}
	.st97{fill:none;stroke:#231F20;stroke-width:5.72;stroke-linecap:round;stroke-dasharray:0,14.6;}
	.st98{fill:none;stroke:#231F20;stroke-width:5.86;stroke-linecap:round;stroke-dasharray:0,14.6;}
	.st99{fill:none;stroke:#231F20;stroke-width:6;stroke-linecap:round;stroke-dasharray:0,14.6;}
	.st100{fill:none;stroke:#231F20;stroke-width:6.15;stroke-linecap:round;stroke-dasharray:0,14.6;}
	.st101{fill:none;stroke:#231F20;stroke-width:6.29;stroke-linecap:round;stroke-dasharray:0,14.6;}
	.st102{fill:none;stroke:#231F20;stroke-width:6.44;stroke-linecap:round;stroke-dasharray:0,14.6;}
	.st103{fill:none;stroke:#231F20;stroke-width:6.58;stroke-linecap:round;stroke-dasharray:0,14.6;}
	.st104{fill:none;stroke:#231F20;stroke-width:6.73;stroke-linecap:round;stroke-dasharray:0,14.6;}
	.st105{fill:none;stroke:#231F20;stroke-width:6.87;stroke-linecap:round;stroke-dasharray:0,14.6;}
	.st106{fill:none;stroke:#231F20;stroke-width:7.01;stroke-linecap:round;stroke-dasharray:0,14.6;}
	.st107{fill:none;stroke:#231F20;stroke-width:7.16;stroke-linecap:round;stroke-dasharray:0,14.6;}
	.st108{fill:none;stroke:#231F20;stroke-width:7.3;stroke-linecap:round;stroke-dasharray:0,14.6;}
	.st109{opacity:0.2;fill:url(#SVGID_00000089560892441520019610000008284170835671513478_);enable-background:new    ;}
	.st110{opacity:0.1;fill:url(#SVGID_00000034072213031667733410000009803924696628743552_);enable-background:new    ;}
	.st111{opacity:0.1;}
	.st112{fill:url(#SVGID_00000048468823032002651050000002132130496535693742_);}
	.st113{fill:url(#SVGID_00000095308017329205781300000001650366053488606336_);}
	.st114{fill:url(#SVGID_00000088815019668067380850000013702092814235840144_);}
	.st115{fill:url(#SVGID_00000096749678700967937580000002985327287030815664_);}
	.st116{fill:url(#SVGID_00000146496832048786158580000013479083521815362727_);}
	.st117{fill:url(#SVGID_00000182512703949455394180000015397417290242519735_);}
	.st118{fill:url(#SVGID_00000089549139132772792770000004491944195888897693_);}
	.st119{fill:url(#SVGID_00000067234517447271943680000013306480441217873071_);}
	.st120{fill:url(#SVGID_00000150803913078437575710000000235969690834874551_);}
	.st121{fill:url(#SVGID_00000072959540953309127590000005179556463106640546_);}
	.st122{fill:url(#SVGID_00000171715045543103466800000008821092687876287619_);}
	.st123{fill:url(#SVGID_00000132058132221699999510000011361633993382065055_);}
	.st124{fill:url(#SVGID_00000006669138487196228010000001878233682200565130_);}
	.st125{fill:url(#SVGID_00000174562375607990633260000000674253551668666010_);}
	.st126{fill:#010101;}
	.st127{fill:url(#SVGID_00000143582737732730945000000007537743403712084126_);}
	.st128{fill:none;stroke:#D62027;stroke-width:1.196;stroke-linecap:square;}
	.st129{fill:none;stroke:#010101;stroke-width:0.598;}
	.st130{opacity:0.25;fill:#EDEDED;enable-background:new    ;}
	.st131{opacity:0.25;fill:#C3D2D3;enable-background:new    ;}
	.st132{clip-path:url(#SVGID_00000114768384749945237450000015711052882665798552_);}
	.st133{fill:url(#SVGID_00000052806605022289362070000013322403834987968897_);}
	.st134{fill:none;stroke:#D62027;stroke-width:1.2088;stroke-linecap:round;}
	.st135{fill:none;stroke:#010101;stroke-width:0.5;}
	.st136{clip-path:url(#SVGID_00000173140005377574354360000013834110303599723433_);}
	.st137{fill-rule:evenodd;clip-rule:evenodd;fill:#010101;}
	.st138{clip-path:url(#SVGID_00000090264220925720279240000015941967372534322331_);}
	.st139{fill:url(#SVGID_00000137815068774954422280000007451960651384350886_);}
	.st140{clip-path:url(#SVGID_00000068654489985851188990000005728816449267068590_);}
	.st141{clip-path:url(#SVGID_00000177444403529212714970000010403618657959823516_);}
	.st142{fill:url(#SVGID_00000005241153736083149620000013132349166435035824_);}
	.st143{fill:#D62027;stroke:#010101;stroke-width:0.1;}
	.st144{fill:#D62027;}
	.st145{font-family:'Gibson-Regular';}
	.st146{font-size:48px;}
	.st147{fill:none;stroke:#000000;stroke-width:0.5;}
	.st148{clip-path:url(#SVGID_00000156557616851588262090000017099436940581591469_);}
	.st149{font-family:'Geneva';}
	.st150{font-size:19px;}
	.st151{fill:none;stroke:#000000;stroke-width:0.3;stroke-miterlimit:3.9999;}
	.st152{clip-path:url(#SVGID_00000156550051044154601730000017292434490665938838_);}
	.st153{font-size:19.4073px;}
</style>
<symbol  id="jersey_x5F_wht" viewBox="-26.7 -30.5 53.4 61">
	
		<linearGradient id="SVGID_1_" gradientUnits="userSpaceOnUse" x1="-53.4271" y1="-22.8572" x2="-41.4874" y2="-22.8572" gradientTransform="matrix(1 0 0 1 26.71 30.49)">
		<stop  offset="0.1697" style="stop-color:#FFFFFF"/>
		<stop  offset="0.4821" style="stop-color:#F5F5F5"/>
		<stop  offset="1" style="stop-color:#DADADA"/>
	</linearGradient>
	<path class="st0" d="M-20.3,21c0,0-1.9-7.4-2.2-8c-0.9-1.9-1.4-4.1-1.8-6.1c-0.3-1.6-1.2-3.1-1.4-4.7c-0.2-1.4-0.8-2.6-1-4
		c-0.1-0.9-0.2-0.6,0.4-1.1c0.4-0.3,1.3-0.6,1.8-0.7c1-0.2,1.9-0.5,2.9-0.8c2.2-0.8,4.3-1.3,6.7-1.3L-15,1.7c0,0,0.1,5.1,0.1,5.7
		c0,0.5-0.5,4.7-0.5,4.7l-0.6,2.8l-2.1,3.7L-20.3,21"/>
	
		<linearGradient id="SVGID_00000090262401923156897050000010146808997239095201_" gradientUnits="userSpaceOnUse" x1="-1.074363e-02" y1="-21.3327" x2="-13.3453" y2="-21.3327" gradientTransform="matrix(1 0 0 1 26.71 30.49)">
		<stop  offset="1.210000e-02" style="stop-color:#FFFFFF"/>
		<stop  offset="0.3679" style="stop-color:#FCFCFC"/>
		<stop  offset="0.656" style="stop-color:#F2F2F2"/>
		<stop  offset="0.9196" style="stop-color:#E1E1E1"/>
		<stop  offset="1" style="stop-color:#DADADA"/>
	</linearGradient>
	<path style="fill:url(#SVGID_00000090262401923156897050000010146808997239095201_);" d="M15.6-4.4L15.6-4.4l-0.1,0.1
		c-0.1,0.2-0.1,0.3-0.1,0.5c0,0.1-0.1,0.2-0.1,0.4c-0.1,0.3-0.1,0.6-0.2,0.8c-0.2,0.7-0.3,1.3-0.5,2c-0.2,0.7-0.4,1.4-0.5,2
		c-0.1,0.5-0.3,1.1-0.4,1.7c-0.1,0.3-0.1,0.6-0.2,0.9c-0.2,1.2,0.2,2.6,0.3,3.8c0.1,2.3-0.2,4.7-0.1,7c0.1,1.7,0.5,2.8,1.8,4
		c0.7,0.6,1.5,0.9,2.3,1.5c0.5,0.3,1.9,2.8,2.3,2.7c1-0.4,1.5-3.3,1.7-4.1c0.4-1.1,1.2-2.5,1.2-3.6c0-0.3,0.5-3.2,0.5-3.6
		c0-0.4,0.6-4.5,0.6-4.5s0.7-2.2,0.8-2.9c0.1-0.7,0.8-2.6,0.9-3.1c0.1-0.4,0.3-0.8,0.4-1.2c0.2-0.5,0.3-1,0.4-1.5
		c0.1-0.3,0.1-0.7-0.1-0.9c-0.2-0.2-0.6-0.3-0.9-0.4c-0.7-0.3-1.5-0.6-2.3-0.8c-0.1,0-0.2-0.1-0.3-0.1c-0.1,0-0.2,0-0.3-0.1
		c-0.1-0.1-0.3-0.1-0.5-0.1c-0.1,0-0.3-0.1-0.4-0.1c-0.4,0-0.7-0.1-1-0.2c-0.2,0-0.5,0-0.7,0c-0.1,0-0.3-0.1-0.4-0.1
		c-0.1,0-0.2,0-0.3,0c-0.1,0-0.2,0-0.3,0c-0.3,0-0.7,0-1-0.1c-0.6-0.1-1.2,0-1.9,0c-0.2,0-0.3,0-0.5,0L15.6-4.4"/>
	
		<linearGradient id="SVGID_00000098901381302249924040000011125182157932615041_" gradientUnits="userSpaceOnUse" x1="-26.6074" y1="-60.9928" x2="-26.6074" y2="1.280796e-02" gradientTransform="matrix(1 0 0 1 26.71 30.49)">
		<stop  offset="0" style="stop-color:#CECBE6"/>
		<stop  offset="0.4545" style="stop-color:#FFFFFF"/>
		<stop  offset="0.7389" style="stop-color:#FDFDFD"/>
		<stop  offset="0.853" style="stop-color:#F6F6F6"/>
		<stop  offset="0.9363" style="stop-color:#EAEAEA"/>
		<stop  offset="1" style="stop-color:#DADADA"/>
	</linearGradient>
	<path style="fill:url(#SVGID_00000098901381302249924040000011125182157932615041_);" d="M-6.7,30.5L-6.7,30.5l-9.7-3.2
		c0,0-2.1-0.7-3.9-6.3l2-2.6l1.9-3.1L-15.4-2l0.2-9.9c0.1-3.4,0.2-6.8,0.2-10.3c0-1.4,0.1-2.9,0.1-4.3c0-0.5,0-1,0-1.6
		c0-0.6-0.1-1.2-0.2-1.9c2.2-0.1,4.4-0.4,6.6-0.4c2,0,3.8,0.3,5.7,0.3c1.9,0,3.7,0.3,5.6,0.1c1-0.1,2-0.2,3-0.2
		c1.1,0,2.2-0.3,3.3-0.4c1.2,0,2.3,0,3.5,0.1c0.4,0,0.8,0,1.2,0c0.4,0,0.9-0.1,1.3,0c0.5,0,0.5,4.2,0.5,4.7c0,1.3-0.1,2.6-0.1,3.9
		c-0.1,2.8-0.1,5.6-0.2,8.4c-0.1,2.6-0.1,5.2-0.2,7.8l-1.1,19l0.1,3l1.9,2.2l3.1,2.2l1,1.3c0,0-0.5,3.9-4.1,5.6
		C12.8,29.1,7,30.4,7,30.4l-2.6-5.9l-4.2-3l-5.1,3.7L-6.7,30.5"/>
</symbol>
<symbol  id="pfl_x5F_logo" viewBox="-29.2 -30.4 58.5 60.9">
	<path class="st3" d="M-1.5-30c-31.1,11.8-24,53.7-23.1,58.5l0.4,1.9l1.7-0.9c4.1-2.1,12.9-3.4,22.5-3.4s18.4,1.3,22.5,3.4l1.7,0.9
		l0.4-1.9c0.9-4.8,8-46.7-23.1-58.5l-0.7-0.2L0-30.4l-0.9,0.3L-1.5-30z"/>
	<path class="st4" d="M0,24.7c-10.2,0-19,1.5-23.2,3.6C-24,24.1-31.2-18,0-29v0h0h0v0C31.2-18,24,24.1,23.2,28.3
		C19,26.2,10.2,24.7,0,24.7z"/>
	
		<linearGradient id="SVGID_00000163052179692284953990000018215397654341374360_" gradientUnits="userSpaceOnUse" x1="-29.2513" y1="-56.63" x2="-29.2513" y2="-5.16" gradientTransform="matrix(1 0 0 1 29.25 30.43)">
		<stop  offset="0.2848" style="stop-color:#BFBFBF"/>
		<stop  offset="0.3162" style="stop-color:#D0D0D0"/>
		<stop  offset="0.3661" style="stop-color:#E5E5E5"/>
		<stop  offset="0.4223" style="stop-color:#F4F4F4"/>
		<stop  offset="0.4891" style="stop-color:#FCFCFC"/>
		<stop  offset="0.5939" style="stop-color:#FFFFFF"/>
		<stop  offset="0.6655" style="stop-color:#FCFCFC"/>
		<stop  offset="0.7163" style="stop-color:#F3F3F3"/>
		<stop  offset="0.7607" style="stop-color:#E3E3E3"/>
		<stop  offset="0.8014" style="stop-color:#CDCDCD"/>
		<stop  offset="0.8392" style="stop-color:#B1B1B1"/>
		<stop  offset="0.8727" style="stop-color:#919191"/>
	</linearGradient>
	<path style="fill:url(#SVGID_00000163052179692284953990000018215397654341374360_);" d="M0,22.5c-8.8,0-16.5,1.1-21.2,2.7
		c-1.1-6.7-5.8-42,21.1-51.5v0h0h0v0c26.9,9.5,22.3,44.8,21.2,51.5C16.5,23.6,8.8,22.5,0,22.5z"/>
	
		<linearGradient id="SVGID_00000007410362389103932520000005560702753098562461_" gradientUnits="userSpaceOnUse" x1="-29.25" y1="-51.93" x2="-29.25" y2="-5.93" gradientTransform="matrix(1 0 0 1 29.25 30.43)">
		<stop  offset="0.1703" style="stop-color:#C5C5C7"/>
		<stop  offset="0.8736" style="stop-color:#FFFFFF"/>
	</linearGradient>
	<path style="opacity:0.1;fill:url(#SVGID_00000007410362389103932520000005560702753098562461_);enable-background:new    ;" d="
		M-15.3,23.2c-2,0.4-3.8,0.8-5.3,1.3c-0.7-3.8-5.5-32.9,12.6-46C-17.7-3.1-16.6,14.8-15.3,23.2z M20.6,24.5
		c-1.5-0.5-3.3-0.9-5.3-1.3c1.3-8.4,2.3-26.3-7.3-44.7C26.2-8.4,21.4,20.7,20.6,24.5z"/>
	
		<linearGradient id="SVGID_00000057852547154144137950000002757584444965318542_" gradientUnits="userSpaceOnUse" x1="-29.25" y1="-55.89" x2="-29.25" y2="-52.8656" gradientTransform="matrix(1 0 0 1 29.25 30.43)">
		<stop  offset="0.1703" style="stop-color:#C5C5C7"/>
		<stop  offset="0.8736" style="stop-color:#FFFFFF"/>
	</linearGradient>
	<path style="opacity:0.1;fill:url(#SVGID_00000057852547154144137950000002757584444965318542_);enable-background:new    ;" d="
		M0-23.2c-2.3,0-4.5,0.3-6.5,0.8c1.9-1.2,4.1-2.2,6.5-3v0h0h0v0c2.5,0.8,4.6,1.8,6.5,3C4.5-22.9,2.3-23.2,0-23.2z"/>
	<g>
		<path class="st8" d="M-15.7,5.4c0,0-3.6,0-6,0v0.3c2.4,0,5.9,0,5.9,0c0.3,0,0.4,0,0.6,0c0-0.1,0-0.2,0-0.3
			C-15.2,5.4-15.4,5.4-15.7,5.4z M19.7-0.8c-1.7,0-2.4,0.2-2.7,0.2c-0.1,0.2-0.3,0.9-0.3,2.3l0,11.3H9.4v-1.2
			c-1.5,0.9-3.8,1.3-7.1,1.3h-3c-2.7,0-4.6-0.3-5.9-0.8c-1-0.4-1.8-1-2.5-1.8c-0.2,0.2-0.3,0.4-0.5,0.6c-1.3,1.2-3.3,1.9-6.1,1.9
			H-29V-7.9h7.4c0,0,0,4.2,0,5.9c2.4,0,5.7,0,5.7,0c2.2,0,3.8,0.3,5,0.9l0-6.8h7.2c0,0,0,5.1,0,7.2c3,0,11.5,0,11.5,0s0,3.6,0,4.2
			h1.7l0-1.2c0-4,0.7-6.6,2.2-8.1c1.5-1.5,4.1-2.2,8.1-2.2H29v7.1C29-0.8,19.7-0.8,19.7-0.8z"/>
		<path class="st9" d="M-15.7,8H-24V3.1h8.3c1,0,1.7,0.2,2.1,0.4c0.5,0.4,0.8,1,0.8,1.9c0,1-0.2,1.7-0.6,2.1
			C-13.9,7.8-14.6,8-15.7,8 M-15.9,0.4h-8v-5.9h-2.7v16.3h11c2.2,0,3.6-0.4,4.4-1.2c0.8-0.8,1.2-2.2,1.2-4.4c0-1.9-0.5-3.2-1.6-3.9
			C-12.5,0.6-13.9,0.4-15.9,0.4z M-6,4H5.4V1.6H-6v-7.2h-2.6l0,8.4c0,2.2,0.2,3.9,0.5,4.9c0.4,1.2,1.2,1.9,2.3,2.4
			c1.1,0.4,2.8,0.6,5.1,0.6h3c2.9,0,4.9-0.4,6.1-1.1c1.1-0.7,1.7-2,1.9-3.8H7.7C7.4,6.9,6.8,7.6,6,7.9C5.3,8.1,4.1,8.2,2.2,8.2h-2.7
			c-2.2,0-3.6-0.2-4.2-0.6C-5.6,7.1-6,5.9-6,4 M19.6-5.6c-3.3,0-5.4,0.5-6.5,1.5c-1,1-1.5,3.1-1.5,6.4l0.1,8.4h2.8l0-9
			c0-2.1,0.4-3.5,1.1-4.1c0.6-0.5,2-0.7,4.1-0.7h7v-2.5L19.6-5.6"/>
	</g>
	<polygon class="st8" points="0,-11.5 1.6,-14.6 5,-15.1 2.5,-17.6 3.1,-21.1 0,-19.4 -3.1,-21.1 -2.5,-17.6 -5,-15.1 -1.5,-14.6 	
		"/>
</symbol>
<pattern  y="144" width="29" height="705.8" patternUnits="userSpaceOnUse" id="SVGID_21_" viewBox="18.2 -709.5 29 705.8" style="overflow:visible;">
	<g>
		<rect x="18.2" y="-709.5" class="st10" width="29" height="705.8"/>
		<g>
			<rect x="18.1" y="-709.5" class="st10" width="29" height="705.8"/>
			<line class="st11" x1="10.9" y1="-712.9" x2="57" y2="-712.9"/>
			<line class="st12" x1="10.9" y1="-698.3" x2="57" y2="-698.3"/>
			<line class="st13" x1="10.9" y1="-683.6" x2="57" y2="-683.6"/>
			<line class="st14" x1="10.9" y1="-669" x2="57" y2="-669"/>
			<line class="st15" x1="10.9" y1="-654.4" x2="57" y2="-654.4"/>
			<line class="st16" x1="10.9" y1="-639.8" x2="57" y2="-639.8"/>
			<line class="st17" x1="10.9" y1="-625.1" x2="57" y2="-625.1"/>
			<line class="st18" x1="10.9" y1="-610.5" x2="57" y2="-610.5"/>
			<line class="st19" x1="10.9" y1="-595.9" x2="57" y2="-595.9"/>
			<line class="st20" x1="10.9" y1="-581.2" x2="57" y2="-581.2"/>
			<line class="st21" x1="10.9" y1="-566.6" x2="57" y2="-566.6"/>
			<line class="st22" x1="10.9" y1="-552" x2="57" y2="-552"/>
			<line class="st23" x1="10.9" y1="-537.3" x2="57" y2="-537.3"/>
			<line class="st24" x1="10.9" y1="-522.7" x2="57" y2="-522.7"/>
			<line class="st25" x1="10.9" y1="-508.1" x2="57" y2="-508.1"/>
			<line class="st26" x1="10.9" y1="-493.4" x2="57" y2="-493.4"/>
			<line class="st27" x1="10.9" y1="-478.8" x2="57" y2="-478.8"/>
			<line class="st28" x1="10.9" y1="-464.2" x2="57" y2="-464.2"/>
			<line class="st29" x1="10.9" y1="-449.5" x2="57" y2="-449.5"/>
			<line class="st30" x1="10.9" y1="-434.9" x2="57" y2="-434.9"/>
			<line class="st31" x1="10.9" y1="-420.3" x2="57" y2="-420.3"/>
			<line class="st32" x1="10.9" y1="-405.6" x2="57" y2="-405.6"/>
			<line class="st33" x1="10.9" y1="-391" x2="57" y2="-391"/>
			<line class="st34" x1="10.9" y1="-376.4" x2="57" y2="-376.4"/>
			<line class="st35" x1="10.9" y1="-361.7" x2="57" y2="-361.7"/>
			<line class="st36" x1="10.9" y1="-347.1" x2="57" y2="-347.1"/>
			<line class="st37" x1="10.9" y1="-332.5" x2="57" y2="-332.5"/>
			<line class="st38" x1="10.9" y1="-317.8" x2="57" y2="-317.8"/>
			<line class="st39" x1="10.9" y1="-303.2" x2="57" y2="-303.2"/>
			<line class="st40" x1="10.9" y1="-288.6" x2="57" y2="-288.6"/>
			<line class="st41" x1="10.9" y1="-273.9" x2="57" y2="-273.9"/>
			<line class="st42" x1="10.9" y1="-259.3" x2="57" y2="-259.3"/>
			<line class="st43" x1="10.9" y1="-244.7" x2="57" y2="-244.7"/>
			<line class="st44" x1="10.9" y1="-230.1" x2="57" y2="-230.1"/>
			<line class="st45" x1="10.9" y1="-215.4" x2="57" y2="-215.4"/>
			<line class="st46" x1="10.9" y1="-200.8" x2="57" y2="-200.8"/>
			<line class="st47" x1="10.9" y1="-186.2" x2="57" y2="-186.2"/>
			<line class="st48" x1="10.9" y1="-171.5" x2="57" y2="-171.5"/>
			<line class="st49" x1="10.9" y1="-156.9" x2="57" y2="-156.9"/>
			<line class="st50" x1="10.9" y1="-142.3" x2="57" y2="-142.3"/>
			<line class="st51" x1="10.9" y1="-127.6" x2="57" y2="-127.6"/>
			<line class="st52" x1="10.9" y1="-113" x2="57" y2="-113"/>
			<line class="st53" x1="10.9" y1="-98.4" x2="57" y2="-98.4"/>
			<line class="st54" x1="10.9" y1="-83.7" x2="57" y2="-83.7"/>
			<line class="st55" x1="10.9" y1="-69.1" x2="57" y2="-69.1"/>
			<line class="st56" x1="10.9" y1="-54.5" x2="57" y2="-54.5"/>
			<line class="st57" x1="10.9" y1="-39.8" x2="57" y2="-39.8"/>
			<line class="st58" x1="10.9" y1="-25.2" x2="57" y2="-25.2"/>
			<line class="st59" x1="10.9" y1="-10.6" x2="57" y2="-10.6"/>
			<line class="st60" x1="3.7" y1="-705.6" x2="49.7" y2="-705.6"/>
			<line class="st61" x1="3.7" y1="-691" x2="49.7" y2="-691"/>
			<line class="st62" x1="3.7" y1="-676.3" x2="49.7" y2="-676.3"/>
			<line class="st63" x1="3.7" y1="-661.7" x2="49.7" y2="-661.7"/>
			<line class="st64" x1="3.7" y1="-647.1" x2="49.7" y2="-647.1"/>
			<line class="st65" x1="3.7" y1="-632.4" x2="49.7" y2="-632.4"/>
			<line class="st66" x1="3.7" y1="-617.8" x2="49.7" y2="-617.8"/>
			<line class="st67" x1="3.7" y1="-603.2" x2="49.7" y2="-603.2"/>
			<line class="st68" x1="3.7" y1="-588.5" x2="49.7" y2="-588.5"/>
			<line class="st69" x1="3.7" y1="-573.9" x2="49.7" y2="-573.9"/>
			<line class="st70" x1="3.7" y1="-559.3" x2="49.7" y2="-559.3"/>
			<line class="st71" x1="3.7" y1="-544.6" x2="49.7" y2="-544.6"/>
			<line class="st72" x1="3.7" y1="-530" x2="49.7" y2="-530"/>
			<line class="st73" x1="3.7" y1="-515.4" x2="49.7" y2="-515.4"/>
			<line class="st74" x1="3.7" y1="-500.7" x2="49.7" y2="-500.7"/>
			<line class="st75" x1="3.7" y1="-486.1" x2="49.7" y2="-486.1"/>
			<line class="st76" x1="3.7" y1="-471.5" x2="49.7" y2="-471.5"/>
			<line class="st77" x1="3.7" y1="-456.8" x2="49.7" y2="-456.8"/>
			<line class="st78" x1="3.7" y1="-442.2" x2="49.7" y2="-442.2"/>
			<line class="st79" x1="3.7" y1="-427.6" x2="49.7" y2="-427.6"/>
			<line class="st80" x1="3.7" y1="-413" x2="49.7" y2="-413"/>
			<line class="st81" x1="3.7" y1="-398.3" x2="49.7" y2="-398.3"/>
			<line class="st82" x1="3.7" y1="-383.7" x2="49.7" y2="-383.7"/>
			<line class="st83" x1="3.7" y1="-369.1" x2="49.7" y2="-369.1"/>
			<line class="st84" x1="3.7" y1="-354.4" x2="49.7" y2="-354.4"/>
			<line class="st85" x1="3.7" y1="-339.8" x2="49.7" y2="-339.8"/>
			<line class="st86" x1="3.7" y1="-325.2" x2="49.7" y2="-325.2"/>
			<line class="st87" x1="3.7" y1="-310.5" x2="49.7" y2="-310.5"/>
			<line class="st88" x1="3.7" y1="-295.9" x2="49.7" y2="-295.9"/>
			<line class="st89" x1="3.7" y1="-281.3" x2="49.7" y2="-281.3"/>
			<line class="st90" x1="3.7" y1="-266.6" x2="49.7" y2="-266.6"/>
			<line class="st91" x1="3.7" y1="-252" x2="49.7" y2="-252"/>
			<line class="st92" x1="3.7" y1="-237.4" x2="49.7" y2="-237.4"/>
			<line class="st93" x1="3.7" y1="-222.7" x2="49.7" y2="-222.7"/>
			<line class="st94" x1="3.7" y1="-208.1" x2="49.7" y2="-208.1"/>
			<line class="st95" x1="3.7" y1="-193.5" x2="49.7" y2="-193.5"/>
			<line class="st96" x1="3.7" y1="-178.8" x2="49.7" y2="-178.8"/>
			<line class="st97" x1="3.7" y1="-164.2" x2="49.7" y2="-164.2"/>
			<line class="st98" x1="3.7" y1="-149.6" x2="49.7" y2="-149.6"/>
			<line class="st99" x1="3.7" y1="-134.9" x2="49.7" y2="-134.9"/>
			<line class="st100" x1="3.7" y1="-120.3" x2="49.7" y2="-120.3"/>
			<line class="st101" x1="3.7" y1="-105.7" x2="49.7" y2="-105.7"/>
			<line class="st102" x1="3.7" y1="-91.1" x2="49.7" y2="-91.1"/>
			<line class="st103" x1="3.7" y1="-76.4" x2="49.7" y2="-76.4"/>
			<line class="st104" x1="3.7" y1="-61.8" x2="49.7" y2="-61.8"/>
			<line class="st105" x1="3.7" y1="-47.2" x2="49.7" y2="-47.2"/>
			<line class="st106" x1="3.7" y1="-32.5" x2="49.7" y2="-32.5"/>
			<line class="st107" x1="3.7" y1="-17.9" x2="49.7" y2="-17.9"/>
			<line class="st108" x1="3.7" y1="-3.7" x2="49.7" y2="-3.7"/>
		</g>
	</g>
</pattern>
<pattern  y="144" width="29" height="705.8" patternUnits="userSpaceOnUse" id="SVGID_24_" viewBox="18.2 -709.5 29 705.8" style="overflow:visible;">
	<g>
		<rect x="18.2" y="-709.5" class="st10" width="29" height="705.8"/>
		<g>
			<rect x="18.1" y="-709.5" class="st10" width="29" height="705.8"/>
			<line class="st11" x1="10.9" y1="-712.9" x2="57" y2="-712.9"/>
			<line class="st12" x1="10.9" y1="-698.3" x2="57" y2="-698.3"/>
			<line class="st13" x1="10.9" y1="-683.6" x2="57" y2="-683.6"/>
			<line class="st14" x1="10.9" y1="-669" x2="57" y2="-669"/>
			<line class="st15" x1="10.9" y1="-654.4" x2="57" y2="-654.4"/>
			<line class="st16" x1="10.9" y1="-639.8" x2="57" y2="-639.8"/>
			<line class="st17" x1="10.9" y1="-625.1" x2="57" y2="-625.1"/>
			<line class="st18" x1="10.9" y1="-610.5" x2="57" y2="-610.5"/>
			<line class="st19" x1="10.9" y1="-595.9" x2="57" y2="-595.9"/>
			<line class="st20" x1="10.9" y1="-581.2" x2="57" y2="-581.2"/>
			<line class="st21" x1="10.9" y1="-566.6" x2="57" y2="-566.6"/>
			<line class="st22" x1="10.9" y1="-552" x2="57" y2="-552"/>
			<line class="st23" x1="10.9" y1="-537.3" x2="57" y2="-537.3"/>
			<line class="st24" x1="10.9" y1="-522.7" x2="57" y2="-522.7"/>
			<line class="st25" x1="10.9" y1="-508.1" x2="57" y2="-508.1"/>
			<line class="st26" x1="10.9" y1="-493.4" x2="57" y2="-493.4"/>
			<line class="st27" x1="10.9" y1="-478.8" x2="57" y2="-478.8"/>
			<line class="st28" x1="10.9" y1="-464.2" x2="57" y2="-464.2"/>
			<line class="st29" x1="10.9" y1="-449.5" x2="57" y2="-449.5"/>
			<line class="st30" x1="10.9" y1="-434.9" x2="57" y2="-434.9"/>
			<line class="st31" x1="10.9" y1="-420.3" x2="57" y2="-420.3"/>
			<line class="st32" x1="10.9" y1="-405.6" x2="57" y2="-405.6"/>
			<line class="st33" x1="10.9" y1="-391" x2="57" y2="-391"/>
			<line class="st34" x1="10.9" y1="-376.4" x2="57" y2="-376.4"/>
			<line class="st35" x1="10.9" y1="-361.7" x2="57" y2="-361.7"/>
			<line class="st36" x1="10.9" y1="-347.1" x2="57" y2="-347.1"/>
			<line class="st37" x1="10.9" y1="-332.5" x2="57" y2="-332.5"/>
			<line class="st38" x1="10.9" y1="-317.8" x2="57" y2="-317.8"/>
			<line class="st39" x1="10.9" y1="-303.2" x2="57" y2="-303.2"/>
			<line class="st40" x1="10.9" y1="-288.6" x2="57" y2="-288.6"/>
			<line class="st41" x1="10.9" y1="-273.9" x2="57" y2="-273.9"/>
			<line class="st42" x1="10.9" y1="-259.3" x2="57" y2="-259.3"/>
			<line class="st43" x1="10.9" y1="-244.7" x2="57" y2="-244.7"/>
			<line class="st44" x1="10.9" y1="-230.1" x2="57" y2="-230.1"/>
			<line class="st45" x1="10.9" y1="-215.4" x2="57" y2="-215.4"/>
			<line class="st46" x1="10.9" y1="-200.8" x2="57" y2="-200.8"/>
			<line class="st47" x1="10.9" y1="-186.2" x2="57" y2="-186.2"/>
			<line class="st48" x1="10.9" y1="-171.5" x2="57" y2="-171.5"/>
			<line class="st49" x1="10.9" y1="-156.9" x2="57" y2="-156.9"/>
			<line class="st50" x1="10.9" y1="-142.3" x2="57" y2="-142.3"/>
			<line class="st51" x1="10.9" y1="-127.6" x2="57" y2="-127.6"/>
			<line class="st52" x1="10.9" y1="-113" x2="57" y2="-113"/>
			<line class="st53" x1="10.9" y1="-98.4" x2="57" y2="-98.4"/>
			<line class="st54" x1="10.9" y1="-83.7" x2="57" y2="-83.7"/>
			<line class="st55" x1="10.9" y1="-69.1" x2="57" y2="-69.1"/>
			<line class="st56" x1="10.9" y1="-54.5" x2="57" y2="-54.5"/>
			<line class="st57" x1="10.9" y1="-39.8" x2="57" y2="-39.8"/>
			<line class="st58" x1="10.9" y1="-25.2" x2="57" y2="-25.2"/>
			<line class="st59" x1="10.9" y1="-10.6" x2="57" y2="-10.6"/>
			<line class="st60" x1="3.7" y1="-705.6" x2="49.7" y2="-705.6"/>
			<line class="st61" x1="3.7" y1="-691" x2="49.7" y2="-691"/>
			<line class="st62" x1="3.7" y1="-676.3" x2="49.7" y2="-676.3"/>
			<line class="st63" x1="3.7" y1="-661.7" x2="49.7" y2="-661.7"/>
			<line class="st64" x1="3.7" y1="-647.1" x2="49.7" y2="-647.1"/>
			<line class="st65" x1="3.7" y1="-632.4" x2="49.7" y2="-632.4"/>
			<line class="st66" x1="3.7" y1="-617.8" x2="49.7" y2="-617.8"/>
			<line class="st67" x1="3.7" y1="-603.2" x2="49.7" y2="-603.2"/>
			<line class="st68" x1="3.7" y1="-588.5" x2="49.7" y2="-588.5"/>
			<line class="st69" x1="3.7" y1="-573.9" x2="49.7" y2="-573.9"/>
			<line class="st70" x1="3.7" y1="-559.3" x2="49.7" y2="-559.3"/>
			<line class="st71" x1="3.7" y1="-544.6" x2="49.7" y2="-544.6"/>
			<line class="st72" x1="3.7" y1="-530" x2="49.7" y2="-530"/>
			<line class="st73" x1="3.7" y1="-515.4" x2="49.7" y2="-515.4"/>
			<line class="st74" x1="3.7" y1="-500.7" x2="49.7" y2="-500.7"/>
			<line class="st75" x1="3.7" y1="-486.1" x2="49.7" y2="-486.1"/>
			<line class="st76" x1="3.7" y1="-471.5" x2="49.7" y2="-471.5"/>
			<line class="st77" x1="3.7" y1="-456.8" x2="49.7" y2="-456.8"/>
			<line class="st78" x1="3.7" y1="-442.2" x2="49.7" y2="-442.2"/>
			<line class="st79" x1="3.7" y1="-427.6" x2="49.7" y2="-427.6"/>
			<line class="st80" x1="3.7" y1="-413" x2="49.7" y2="-413"/>
			<line class="st81" x1="3.7" y1="-398.3" x2="49.7" y2="-398.3"/>
			<line class="st82" x1="3.7" y1="-383.7" x2="49.7" y2="-383.7"/>
			<line class="st83" x1="3.7" y1="-369.1" x2="49.7" y2="-369.1"/>
			<line class="st84" x1="3.7" y1="-354.4" x2="49.7" y2="-354.4"/>
			<line class="st85" x1="3.7" y1="-339.8" x2="49.7" y2="-339.8"/>
			<line class="st86" x1="3.7" y1="-325.2" x2="49.7" y2="-325.2"/>
			<line class="st87" x1="3.7" y1="-310.5" x2="49.7" y2="-310.5"/>
			<line class="st88" x1="3.7" y1="-295.9" x2="49.7" y2="-295.9"/>
			<line class="st89" x1="3.7" y1="-281.3" x2="49.7" y2="-281.3"/>
			<line class="st90" x1="3.7" y1="-266.6" x2="49.7" y2="-266.6"/>
			<line class="st91" x1="3.7" y1="-252" x2="49.7" y2="-252"/>
			<line class="st92" x1="3.7" y1="-237.4" x2="49.7" y2="-237.4"/>
			<line class="st93" x1="3.7" y1="-222.7" x2="49.7" y2="-222.7"/>
			<line class="st94" x1="3.7" y1="-208.1" x2="49.7" y2="-208.1"/>
			<line class="st95" x1="3.7" y1="-193.5" x2="49.7" y2="-193.5"/>
			<line class="st96" x1="3.7" y1="-178.8" x2="49.7" y2="-178.8"/>
			<line class="st97" x1="3.7" y1="-164.2" x2="49.7" y2="-164.2"/>
			<line class="st98" x1="3.7" y1="-149.6" x2="49.7" y2="-149.6"/>
			<line class="st99" x1="3.7" y1="-134.9" x2="49.7" y2="-134.9"/>
			<line class="st100" x1="3.7" y1="-120.3" x2="49.7" y2="-120.3"/>
			<line class="st101" x1="3.7" y1="-105.7" x2="49.7" y2="-105.7"/>
			<line class="st102" x1="3.7" y1="-91.1" x2="49.7" y2="-91.1"/>
			<line class="st103" x1="3.7" y1="-76.4" x2="49.7" y2="-76.4"/>
			<line class="st104" x1="3.7" y1="-61.8" x2="49.7" y2="-61.8"/>
			<line class="st105" x1="3.7" y1="-47.2" x2="49.7" y2="-47.2"/>
			<line class="st106" x1="3.7" y1="-32.5" x2="49.7" y2="-32.5"/>
			<line class="st107" x1="3.7" y1="-17.9" x2="49.7" y2="-17.9"/>
			<line class="st108" x1="3.7" y1="-3.7" x2="49.7" y2="-3.7"/>
		</g>
	</g>
</pattern>
<g id="Layer_4">
	<g>
		<defs>
			<rect id="SVGID_00000153670469028578613410000018422713283957863811_" x="20.2" y="10.9" width="106.8" height="121.9"/>
		</defs>
		<clipPath id="SVGID_00000178914729029757375050000001906363681559292565_">
			<use xlink:href="#SVGID_00000153670469028578613410000018422713283957863811_"  style="overflow:visible;"/>
		</clipPath>
		<g style="clip-path:url(#SVGID_00000178914729029757375050000001906363681559292565_);">
			
				<use xlink:href="#jersey_x5F_wht"  width="53.4" height="61" x="-26.7" y="-30.5" transform="matrix(2 0 0 -2 73.3291 71.9546)" style="overflow:visible;"/>
		</g>
	</g>
	
		<pattern  id="SVGID_00000041266840396930539030000005324296577823003058_" xlink:href="#SVGID_21_" patternTransform="matrix(0 0.2793 0.114 0 -16169.0791 -845.526)">
	</pattern>
	<path style="opacity:0.2;fill:url(#SVGID_00000041266840396930539030000005324296577823003058_);enable-background:new    ;" d="
		M103.4,78.5c0,0,0,0.5,0,0.5c-0.1,3.2,0,6.5,0,9.7c0,2.1,0,4.2,0.1,6.3c0,0.7-0.2,2.1,0.2,2.7c0.6,0.8,1.7,0.5,1.8,1.7
		c0.2,1.5,0.2,2.9,0.1,4.4c-0.1,1.9,0.6,3.8,0.4,5.8c-0.1,2.1-0.2,4.4-0.2,6.6c0,2.1,0,4.2,0.2,6.3c0.1,1.2,0.1,2.5,0,3.6
		c-0.1,1,0.1,2.2-0.2,3.2c-0.1,0.4-0.3,0.9-0.5,1.3c-0.3,0.7-0.3,0.5-1,0.5c-0.6,0.1-1.1,0.2-1.7,0.2c-1.4-0.1-2.8-0.2-4.2-0.2
		c-1.5,0-3.4,0.5-5,0.2c-2.7-0.5-4.8-0.9-7.6-0.9c-0.9,0-10.4-0.8-10.4-0.5c0-0.3,0-51.5,0-51.5L103.4,78.5z"/>
	
		<pattern  id="SVGID_00000177462634047256856050000015674446683288197015_" xlink:href="#SVGID_24_" patternTransform="matrix(0 -0.2793 -0.114 0 -16159.9355 -1198.7908)">
	</pattern>
	<path style="opacity:0.1;fill:url(#SVGID_00000177462634047256856050000015674446683288197015_);enable-background:new    ;" d="
		M60.2,29.5c2,0.3,4.2,0.9,6.2,1c1.1,0,4.2,0.1,5-0.7c-1.2,1-0.9,4.5-0.9,5.9c-0.1,2.9,0,5.8,0,8.7c0,5.4,0,10.9,0,16.3
		c0,7.6,0,15.1,0,22.7h-28c0-0.1,0-0.1,0-0.2c0-5.3,0-10.5,0-15.8c0-3.7-0.1-7.3,0.4-11c0.5-3.5-1-7.2-1-10.8c0-2.8,1.3-4.4,1.1-7.2
		c-0.2-2.1-1.2-5.3,1.4-5.8c2.4-0.5,4.3-0.9,6.8-1.1c6.6-0.6,13.4-0.8,20-0.8"/>
	<g class="st111">
		<g>
			
				<linearGradient id="SVGID_00000167366626732904536720000005091331309615811992_" gradientUnits="userSpaceOnUse" x1="34.1888" y1="98.4112" x2="37.5111" y2="98.4112" gradientTransform="matrix(1 0 0 -1 0 146)">
				<stop  offset="0" style="stop-color:#ABB5AB"/>
				<stop  offset="0.2552" style="stop-color:#7D827C"/>
				<stop  offset="0.5003" style="stop-color:#5C5D5A"/>
				<stop  offset="0.7139" style="stop-color:#464644"/>
				<stop  offset="0.8877" style="stop-color:#3A3838"/>
				<stop  offset="1" style="stop-color:#353333"/>
			</linearGradient>
			<path style="fill:url(#SVGID_00000167366626732904536720000005091331309615811992_);" d="M35.6,53.4c0.4,1.5,0.9,2,1.2,1.1
				s0.9-4.7,0.6-6.3l-2.3-6.9c-0.6-1.5-1-1.4-0.9,0.2L35.6,53.4z"/>
		</g>
	</g>
	<g class="st111">
		<g>
			
				<linearGradient id="SVGID_00000168089504200539048330000016902958340216269463_" gradientUnits="userSpaceOnUse" x1="32.8192" y1="69.2944" x2="55.5" y2="69.2944" gradientTransform="matrix(1 0 0 -1 0 146)">
				<stop  offset="0" style="stop-color:#ABB5AB"/>
				<stop  offset="0.2552" style="stop-color:#7D827C"/>
				<stop  offset="0.5003" style="stop-color:#5C5D5A"/>
				<stop  offset="0.7139" style="stop-color:#464644"/>
				<stop  offset="0.8877" style="stop-color:#3A3838"/>
				<stop  offset="1" style="stop-color:#353333"/>
			</linearGradient>
			<path style="fill:url(#SVGID_00000168089504200539048330000016902958340216269463_);" d="M49.3,77.4c-0.2,1.6-0.2,4.6-0.2,6
				c0,1.4-0.6,3.4-1.6,6.6c-1,3.2-1,3.2-1,3.2c-0.3,1.1-0.9,0.9-1.2-0.4c0,0,0,0,0-1c0-1-0.8-5.4-0.8-7.6s-0.6-4.2,0-7.8
				c0.6-3.6,0.8-6.4,1.6-9.4c0.8-3,0.6-5,1.6-7.2c1-2.2,1.4-3.6,1.8-7.6C50,46.7,50,41.5,49.7,36c-0.1-2.5,0-4.3-2.8-4.4
				c-0.1,0-0.1,0-0.2,0c-2.8,0-2.6,1.6-2.4,4.2c0.2,2.5,1,4,0,6.3c-0.7,1.6-1.3,2.7-1.5,4.5c-0.3,3.1-0.4,3.6-0.4,3.6
				c-0.1,1.6-0.2,2.6-0.2,2.2c0,0,0,0,0-0.3c0-5.1,1-9.6,0.8-14.7c0-0.2,0-0.2,0-0.2c0-0.2-0.2-0.4-0.3-0.5c0,0,0,0-0.2-0.1
				c0,0,0,0,0,0c0,0,0,0,0,0c0,0,0,0,0,0c0.1,0,0.1,0,0.1,0c0.1,0,0.2,0.1,0.3,0.1c0,0-0.3-1.2-0.8-2.7L41.3,27
				c-0.4-1.5-0.8-2.7-0.9-2.7c-0.1,0.1-0.4,0.1-0.5-0.1s0-0.7,0-1.2s-0.3,0-0.7,1c-0.4,1-0.8,2-0.8,2.2s-0.1,2.2-0.2,3
				c0,0,0,0,0,0.9c0,0.8,0,0.8,0,0.8c0.1,0.9-0.2,1.6-0.6,1.5s-0.5-0.1-0.2,0s1,0.5,1,0.5s-0.2,0.2-0.4,0.1c-0.3-0.1-0.6,0-0.2,0.4
				s0.8,0.8,0.8,0.9c0,0.1-0.2,0.1-0.6-0.1c-0.4-0.2-1.3-0.9-1.4-1s-0.1,0-0.1-0.1c0,0-0.2-0.2-0.3-0.3c0,0,0,0-0.2-0.1
				c-0.2-0.2-0.4-0.3-0.6-0.5c-1.2-1-1.2-1-1.2-1c-0.8-1.1-1.3-1.9-1.2-1.6s0.7,1.2,0.8,1.4s0.2,0.4,0.3,0.5
				c0.1,0.1,0.3,0.2,0.3,0.2s0.3,0.3,0.8,0.8c0,0,0,0,0.5,0.4c0.3,0.3,0.7,0.5,1,0.8c0.6,0.5,0.6,0.5,0.6,0.5
				c0.7,0.5,1.5,1.8,1.8,2.9c0,0,0,0,0.2,1c0.2,0.7,0.3,1.4,0.4,2c0.2,0.8,0.3,1.6,0.4,2.2c0.1,1.5,0.2,1.5,0.2,1.5
				c0,1.6,0.2,2.7,0.4,2.5c0,0,0,0,0.2-0.2c0.2-0.2,0.3-0.4,0.5-0.5c0.3-0.3,0.5-0.6,0.8-0.9c0-0.1,0-0.1,0-0.1
				c0.1-0.1,0.1-0.1,0.1,0c0,0-0.2,0.3-0.3,0.5c0,0,0,0-0.2,0.2c-0.5,0.6,0,0-0.6,0.7C41,46.3,41,46.3,41,46.3
				c-0.3,0.4-0.7,2-0.8,3.6l-0.3,10.8c-0.1,1.6-0.3,1.6-0.6,0l-1-6.5c-0.2-1.6-0.5-2.1-0.8-1.2s-0.8,3.9-0.7,4.5c0,0,0,0,0.1,0.6
				c0.6,2.8,1,5.8,2,8.4c1.1,2.9,1.5,5.5,1.5,5.5c0.2,1.6-0.4,1.9-1.4,0.7c0,0-3.7-4.4-5-8.7c0,0,0,0,0,0c0,0,0,0-0.1-0.1
				s-0.2-0.3-0.3-0.7s-0.3-0.9-0.4-0.6s-0.2,1-0.3,1c0,0-0.1,0-0.1,0c0,0,0,0,0,0c0.3,3.2,3.1,5.5,4.2,8.4c1.3,3.3,0.1,5.7,0.1,5.7
				c-0.7,1.4-0.9,2.9-0.4,3.2c0.5,0.3,1.9,1,2.4,1c0.5,0,2-0.2,2.4-0.5c0.4-0.3,1.1-1.1,1.1-0.5c0,0.6,0,1.1,0,1.1s0,0,0,0
				c0,0,0,0,0,0c0,0,0,0,0.1,0c0,0,0,0,0,0c0.1,0,0.1,0,0.2,0c0,0,0.1,1.3,0.2,2.8l0.1,6.4c0,1.6,0.1,4.2,0.1,5.8
				c0,0,0.3,10.8,0.4,17.7c0.1,2.9,0.1,5.8,0.2,8.6c0,1,0,2.1,0.1,3.1c0,1.3,0,1.3,0,1.3c-0.2,1.4-0.3,2.5-0.2,2.5s1.2,0,2.3,0
				c1.2,0,2.1-0.1,2.1-0.2s-0.6-1.1-1.4-1.1s-2.1-0.4-1.4-0.4s2.8-1.3,2.7-2.9c0,0-0.2-16-0.2-16.8c0-1,0.8-6.6,1-7.8
				c0.2-1.2,1.6-6.2,2.4-8c0.8-1.8,2.2-6.4,2.6-8.6c0.4-2.2,1-5.2,1.2-9c0.2-3.8,0.2-5,0.2-7.6c0-2.6,0-7,0-11.6c0-4.6,0-5.9,0-5.9
				c0-1.6-0.2-1.6-0.4,0c0,0-1.7,13-2.6,15.7C51.5,69.2,49.5,75.8,49.3,77.4z"/>
		</g>
	</g>
	<g class="st111">
		<g>
			
				<linearGradient id="SVGID_00000028289639227371502920000014652506701209308051_" gradientUnits="userSpaceOnUse" x1="34.6276" y1="110.4546" x2="38.3683" y2="110.4546" gradientTransform="matrix(1 0 0 -1 0 146)">
				<stop  offset="0" style="stop-color:#ABB5AB"/>
				<stop  offset="0.2552" style="stop-color:#7D827C"/>
				<stop  offset="0.5003" style="stop-color:#5C5D5A"/>
				<stop  offset="0.7139" style="stop-color:#464644"/>
				<stop  offset="0.8877" style="stop-color:#3A3838"/>
				<stop  offset="1" style="stop-color:#353333"/>
			</linearGradient>
			<path style="fill:url(#SVGID_00000028289639227371502920000014652506701209308051_);" d="M38,38.1c0.1,0.2,0.1,0.2,0.1,0.2
				c0.2,0.5,0.3,0.6,0.2,0.2c-0.1-0.3-0.9-2.3-1.6-3.5c-0.7-1.2-1.5-2.3-1.6-2.4c-0.2-0.1-0.6-0.3-0.5-0.1s0.6,1.1,1.1,1.9
				c0.5,0.8,1.3,2.1,1.9,2.9C37.6,37.3,37.6,37.3,38,38.1z"/>
		</g>
	</g>
	<g class="st111">
		<g>
			
				<linearGradient id="SVGID_00000016050209534799463950000003958948790217091515_" gradientUnits="userSpaceOnUse" x1="33.7766" y1="115.126" x2="36.1022" y2="115.126" gradientTransform="matrix(1 0 0 -1 0 146)">
				<stop  offset="0" style="stop-color:#ABB5AB"/>
				<stop  offset="0.2552" style="stop-color:#7D827C"/>
				<stop  offset="0.5003" style="stop-color:#5C5D5A"/>
				<stop  offset="0.7139" style="stop-color:#464644"/>
				<stop  offset="0.8877" style="stop-color:#3A3838"/>
				<stop  offset="1" style="stop-color:#353333"/>
			</linearGradient>
			<path style="fill:url(#SVGID_00000016050209534799463950000003958948790217091515_);" d="M35,31c0.5,0.3,1,0.7,1.1,0.7
				s-0.1-0.3-1-0.9s-1.4-1-1.2-0.8S34.5,30.7,35,31z"/>
		</g>
	</g>
	<g class="st111">
		<g>
			
				<linearGradient id="SVGID_00000107575601073613954080000016363876119550000301_" gradientUnits="userSpaceOnUse" x1="60.9361" y1="48.6271" x2="68.2821" y2="48.6271" gradientTransform="matrix(1 0 0 -1 0 146)">
				<stop  offset="0" style="stop-color:#ABB5AB"/>
				<stop  offset="0.2552" style="stop-color:#7D827C"/>
				<stop  offset="0.5003" style="stop-color:#5C5D5A"/>
				<stop  offset="0.7139" style="stop-color:#464644"/>
				<stop  offset="0.8877" style="stop-color:#3A3838"/>
				<stop  offset="1" style="stop-color:#353333"/>
			</linearGradient>
			<path style="fill:url(#SVGID_00000107575601073613954080000016363876119550000301_);" d="M67.3,65.8c-0.4-0.4-1.4,0.2-2.2,1.4
				c0,0,0,0-0.2,0.8c-0.2,0.8-0.2,3-0.2,4.8s0,3.2-0.2,6.4c-0.2,3.2-0.4,8.2-0.6,10.4c-0.2,2.2-0.4,5.8-0.6,8
				c-0.2,2.2-0.6,3.4-1,5.6c-0.4,2.2-0.4,4.2-0.4,6.4c0,2.2,0.4,5,0,7s-0.6,4.2-0.8,6.4c-0.2,2.2-0.2,3.4,0.2,4.8
				c0.1,0.4,0.1,0.4,0.1,0.4c0.2,0.5,0.3,0.9,0.4,0.9c0,0,0,0,0,0c0.2,0,0.5,0,0.7,0c0.1,0,0.1,0,0.1,0c0.1,0,0.2-0.2,0.2-0.4
				c0,0,0,0,0-0.2c0.2-1.4,1.2-4.6,1.2-6.4s0.2-5,0.4-7.2c0.2-2.2,0-2.6,1.2-8.2c1.2-5.6,1.8-9.2,2-11.2c0.2-2,0.6-4.2,0.6-6.8
				c0-2.6,0-5.6,0-8c0-2.4,0-5.2,0-6.6c0-1.4,0-2.2,0-4.4c0-2.2-0.6-2.8-0.8-3.4C67.3,65.8,67.3,65.8,67.3,65.8z"/>
		</g>
	</g>
	<g class="st111">
		<g>
			
				<linearGradient id="SVGID_00000181073533008125754890000003193999886795077529_" gradientUnits="userSpaceOnUse" x1="70.9095" y1="16.4546" x2="73.5426" y2="16.4546" gradientTransform="matrix(1 0 0 -1 0 146)">
				<stop  offset="0" style="stop-color:#ABB5AB"/>
				<stop  offset="0.2552" style="stop-color:#7D827C"/>
				<stop  offset="0.5003" style="stop-color:#5C5D5A"/>
				<stop  offset="0.7139" style="stop-color:#464644"/>
				<stop  offset="0.8877" style="stop-color:#3A3838"/>
				<stop  offset="1" style="stop-color:#353333"/>
			</linearGradient>
			<path style="fill:url(#SVGID_00000181073533008125754890000003193999886795077529_);" d="M70.9,130.1c0,0.2,0.6,0.4,1.3,0.2
				c0.7-0.1,1.3-0.4,1.4-0.6c0-0.2-0.2-1.2-0.7-1.2C72.3,128.7,70.9,129.9,70.9,130.1z"/>
		</g>
	</g>
	<g class="st111">
		<g>
			
				<linearGradient id="SVGID_00000124870720995762031810000014544032065365537716_" gradientUnits="userSpaceOnUse" x1="78.088" y1="16.5762" x2="83.9088" y2="16.5762" gradientTransform="matrix(1 0 0 -1 0 146)">
				<stop  offset="0" style="stop-color:#ABB5AB"/>
				<stop  offset="0.2552" style="stop-color:#7D827C"/>
				<stop  offset="0.5003" style="stop-color:#5C5D5A"/>
				<stop  offset="0.7139" style="stop-color:#464644"/>
				<stop  offset="0.8877" style="stop-color:#3A3838"/>
				<stop  offset="1" style="stop-color:#353333"/>
			</linearGradient>
			<path style="fill:url(#SVGID_00000124870720995762031810000014544032065365537716_);" d="M83,128.6c-1.4-0.2-2.9-0.3-4.4-0.3
				c-0.2,0-0.2,0-0.2,0c-0.2,0-0.3,0.4-0.3,0.9s0.1,1,0.1,1s0.6,0.1,1.1,0.1c0,0,0,0,0.4,0c1.4,0.1,1.4,0.1,1.4,0.1
				c1.5,0.1,2.8,0,2.8-0.3s-0.3-1.6-0.6-1.6C83.3,128.6,83.3,128.6,83,128.6z"/>
		</g>
	</g>
	<g class="st111">
		<g>
			
				<linearGradient id="SVGID_00000108286793483013568120000013906216086820398487_" gradientUnits="userSpaceOnUse" x1="71.2271" y1="54.1278" x2="83.5987" y2="54.1278" gradientTransform="matrix(1 0 0 -1 0 146)">
				<stop  offset="0" style="stop-color:#ABB5AB"/>
				<stop  offset="0.2552" style="stop-color:#7D827C"/>
				<stop  offset="0.5003" style="stop-color:#5C5D5A"/>
				<stop  offset="0.7139" style="stop-color:#464644"/>
				<stop  offset="0.8877" style="stop-color:#3A3838"/>
				<stop  offset="1" style="stop-color:#353333"/>
			</linearGradient>
			<path style="fill:url(#SVGID_00000108286793483013568120000013906216086820398487_);" d="M79.1,120.2c-0.2,1.6-0.6,5.8-0.8,6.4
				c-0.1,0.2-0.1,0.2-0.1,0.2c0,0.6,1.2,1.1,2.8,1.1c0,0,0,0,1.4,0c0.5,0,0.5,0,0.5,0c0.5,0,0.8-1.3,0.6-2.8c0,0-0.3-2.5-0.3-3.7
				c0-1.2-0.4-4.6-0.6-6c-0.2-1.4,0.2-0.4-1.2-7.4c-1.4-7-1.2-6.2-1.4-8.2c-0.2-2-0.4-5.8-0.4-7.4s0-5.6,0-7.6c0-2,0-4.2,0-5.6
				c0-1.4,0.2-4.6-0.2-6c-0.4-1.4-1.8-5-2-6c-0.2-1-0.8-2.4-1.2-5.8C75.9,58,75,56.6,75,56.6c-0.8-1.3-1.8-1.2-2.2,0.4
				c0,0-0.3,1.4-0.5,3.4c-0.2,2-1,3.2-1,6.4c0,3.2,0,4.8,0.6,8c0.6,3.2,1,6.2,1,11.2c0,5,0,10.8-0.2,13.2c-0.2,2.4-0.6,5.6-0.6,9.4
				s-0.2,10.8-0.4,12.2c-0.2,1.4-0.2,5.8-0.4,6.6c0,0.2,0,0.2,0,0.2c0,0.3,0.3,0.5,0.8,0.4s2-1.3,2.2-2.9c0,0,0,0,0-0.3
				c0-0.6,0-4.4,0-7.6c0-3.2,0.2-7.4,0.2-8.6c0-1.2,0.6-5.2,1.4-7.2c0.8-2,1.4-4.6,1.4-5.6c0,0,0,0,0-0.1c0,0.6,0,6.5,0.2,7
				c0.2,0.6,1.6,8.6,1.6,9.8C79.1,113.8,79.3,118.6,79.1,120.2z"/>
		</g>
	</g>
	<g class="st111">
		<g>
			
				<linearGradient id="SVGID_00000084511851728498135330000009773087875668989323_" gradientUnits="userSpaceOnUse" x1="77.7032" y1="111.2205" x2="77.7032" y2="127.8054" gradientTransform="matrix(1 0 0 -1 0 146)">
				<stop  offset="0" style="stop-color:#ABB5AB"/>
				<stop  offset="0.2552" style="stop-color:#7D827C"/>
				<stop  offset="0.5003" style="stop-color:#5C5D5A"/>
				<stop  offset="0.7139" style="stop-color:#464644"/>
				<stop  offset="0.8877" style="stop-color:#3A3838"/>
				<stop  offset="1" style="stop-color:#353333"/>
			</linearGradient>
			<path style="fill:url(#SVGID_00000084511851728498135330000009773087875668989323_);" d="M71.6,30.3c3.3,0-14.8,0.6-14.8,0.6
				c-1.6,0.1-4.2,0.2-5.7,0.4c0,0-3.7,0.4-4.5,0.6c-0.8,0.3-1.3,0.5-1.3,0.5c-1.5,0.6-2.8-0.1-2.9-1.7l-0.4-4.3
				c-0.2-1.6,0-3.3,0.4-3.9s1.9-1.4,3.4-1.9l1.2-0.4c1.5-0.5,3.9-1,5.2-1.2s3.6-0.5,5-0.8c1.4-0.3,3.2,0.5,4.1,1.8
				C61.2,20.1,68.2,30.3,71.6,30.3z M105.9,33.6c0.7-0.6,1.5-1.3,1.9-1.8c1-1.2,1.8-1.4,3.2-2.8c0.6-0.6,0.7-0.7,0.7-0.7
				c0,0,0,0,0,0s0,0,0,0c0,0,0.2-0.1,0.7-0.5c0.3-0.2,0.3-0.2,0.3-0.2c0.2-0.1,0.3-0.3,0.2-0.3c-0.1,0-0.3-0.2-0.5-0.3
				c-0.1-0.1-0.2-0.2-0.1-0.3c0.1,0,0.2-0.1,0.3-0.2c0.1-0.1,0.6-0.4,0.8-0.7c0.2-0.3,0.2-0.6-0.1-0.6s-0.6,0-0.9,0.1
				c0,0,0,0-0.3,0.2c-0.5,0.5-0.7,0.5-0.7,0.5c0,0,0,0,0,0v0l0,0c-0.1,0.1-0.6-0.3-1.2-0.8s-1.7-1-2.4-1.1c-0.7-0.1-1.5-0.5-1.8-0.9
				c-0.3-0.4-1.1-1.2-1.7-1.8s-1.7-1.3-2.4-1.6s-1.7-0.7-2.1-0.9s-1.9-0.5-3.1-0.7s-3.5-0.2-5.1-0.1l-0.6,0
				c-1.6,0.1-3.6,1.3-4.5,2.6l-0.5,0.7c-0.9,1.3-2.3,3-3.1,3.8s-2.6,2.1-3.9,3l-0.2,0.1c-1.3,0.9-1.1,1.6,0.4,1.7l5.3,0.3
				c1.6,0.1,4.1,0.3,5.7,0.5s3.5,0.4,4.3,0.5s1.6,0.1,1.6,0.1c0,0,0,0,0.1,0c0.4,0,0.4,0,0.4,0c0.6,0.1,1.9,0.4,3.1,0.6
				c1.1,0.2,2.5,1.1,3.1,1.8c0.6,0.7,1.6,0.8,2.2,0.2C105.1,34.4,105.1,34.4,105.9,33.6z"/>
		</g>
	</g>
	<g class="st111">
		<g>
			
				<linearGradient id="SVGID_00000142890257384624531650000005510921512833486269_" gradientUnits="userSpaceOnUse" x1="83.922" y1="66.05" x2="116.501" y2="66.05" gradientTransform="matrix(1 0 0 -1 0 146)">
				<stop  offset="0" style="stop-color:#ABB5AB"/>
				<stop  offset="0.2552" style="stop-color:#7D827C"/>
				<stop  offset="0.5003" style="stop-color:#5C5D5A"/>
				<stop  offset="0.7139" style="stop-color:#464644"/>
				<stop  offset="0.8877" style="stop-color:#3A3838"/>
				<stop  offset="1" style="stop-color:#353333"/>
			</linearGradient>
			<path style="fill:url(#SVGID_00000142890257384624531650000005510921512833486269_);" d="M110.2,32.8c1.5-2.2,3-4.2,5.9-4.4
				c0.1,0,0.2,0,0.4,0c-0.1,0-0.3,0-0.4,0c-0.3,0-0.6,0-0.9,0c-0.5,0-0.5,0-0.5,0c-0.5,0.1-1,0.1-0.9,0.1c0,0,0,0-0.1,0
				c-0.1,0-0.2,0.1-0.2,0.1c0,0,0,0-0.1,0c-0.2,0.1-0.2,0.1-0.2,0.1c-0.2,0.1-0.9,0.4-1.4,0.6c-0.6,0.2-1.1,0.5-1.2,0.7
				c-0.1,0.1-1.2,1.2-1.8,1.7c-0.7,0.5-1.7,1.4-2.4,2.2s-1.2,1.5-1.2,1.6s-0.1,0.4-0.4,0.6c-0.2,0.2-0.4,0.4-0.3,0.5
				c0,0.1,0.7,0.3,1.2-0.2c0,0,0,0,0.5-0.4c0.2-0.2,0.2-0.2,0.2-0.2c0.2-0.1,0.5-0.4,0.7-0.6c0.2-0.2,0.7-0.9,0.7-0.9c0,0,0,0,0,0
				c0.1-0.5,0.1-0.5,0.1-0.5c0.6-0.9,0.3-1-0.7-0.1s-1.8,1.6-1.8,1.5s0.9-1,2.1-2.1l0.2-0.2c1.2-1.1,1.9-1.7,1.7-1.3
				c0,0,0,0-0.2,0.3c0,0,0,0,0,0c0,0,0,0,0.1-0.1s0.2-0.2,0.3-0.3c0.1-0.1,0.2-0.2,0.3-0.2s0.6-0.4,0.5-0.3c0,0,0,0-0.1,0.1
				c-0.2,0.2-0.4,0.5-0.6,0.8c-0.7,0.8-0.7,0.8-0.7,0.8c-0.6,0.9-1.2,1.8-1.3,2.1s-1,1-1.3,1.4s-1.5,1-1.5,1c0,0-0.2,0-0.3,0.2
				c0,0,0,0,0,0c0,0,0,0,0,0h0c0,0,0-0.2-0.1-0.5c0-0.3-0.1-0.7-0.1-1s-0.1-0.5-0.1-0.4c0,0-0.1,0.1-0.1,0.2s-0.3-0.3-0.5-1
				c0,0,0,0-0.4-0.5c-0.8-1-2.3-1.5-2.3-1.5c-1.5-0.5-3.1-0.9-3.5-0.9c-0.4,0-0.8-0.1-0.8-0.1s0.2,1.2,0.7,2.8c0,0,0.2,0.7,0.7,2.2
				c0.2,0.6,0.8,3.2,0.8,5.6c0,2.4,0,2.6,0,4.2c0,1.6,0,1.6,0,1.6c-0.4,0.9-1.3,1.5-1.9,1.3c-0.6-0.2-2.1-1-3.2-1.8
				c-1.2-0.8-2.1-1.5-2.1-1.5s0,0,0,0.8c0,0.8-0.2,3.4-0.2,5s0.2,4.8,0.4,6c0.2,1.2,1.2,4.4,2.4,7.6c1.2,3.2,1.6,4.8,2,6.8
				s1.2,3.4,1.6,6c0.4,2.6,2,7,2.2,10c0.2,3,1,4.6,1.8,5.8c0.6,0.9,0.1,1.5-0.4,1.5c-0.2,0-0.4-0.1-0.6-0.3c-0.6-0.8-3.2-3.2-3.8-4
				c-0.6-0.8-2.8-7-4.4-11.4c-1.6-4.4-2.2-8.2-2.8-11.4c-0.6-3.2-1.4-5.8-2.4-9.4c-1-3.6-0.8-9-0.8-9.8c0-0.7-1.6-3.1-1.9-3.1
				c-0.1,0-0.1,0-0.1,0.1c0,0.8,0,4.6,0,7.2c0,2.6-0.2,4.6-0.2,7s0,4.6,0,6.2c0,1.6,0.6,3.6,0.8,5c0.2,1.4,1.6,4.2,2.4,6.8
				c0.8,2.6,1.4,3.6,2,5c0.6,1.4,2.4,4.2,3.4,6.2c1,2,1.6,3.2,4.4,8.4c2.8,5.2,1.6,3,2.4,5.2c0.8,2.2,0,4,0,6c0,2-0.2,4.2-1,6.6
				c-0.8,2.4-0.8,5-1.2,6.4c-0.4,1.4-0.2,3-0.2,3.6c0,0.4,0,0.7,0,0.7c0,1.6,1.2,3,2.7,3.1s5.2,0.3,5,0.3s-1.7,0.1-3.3,0.1
				c0,0-1.6,0-3.8-0.1c-0.2,0-0.2,0-0.2,0c-0.2,0-0.4,0.1-0.4,0.4s0.7,0.5,1.4,0.7s1.5,0.3,1.5,0.3c0,0,0,0,0,0c0.7,0,0.7,0,0.7,0
				c0.7,0.1,1.9,0.1,2.5,0.2c0,0,0,0,0.6,0c0.3,0,0.6,0,0.9,0c1-0.1,1-8.4,1-9.4c-0.1-2.6-0.1-5.2-0.2-7.7
				c-0.1-5.6-0.2-11.3-0.3-16.9c-0.1-5.2-0.3-12.7-0.3-12.7c0-1.6-0.1-2.9-0.1-2.9c0,0,0-0.4,0-0.9c0,0,0,0,0-0.5c0-1,0-2.1,0-3.2
				c0-2.1-0.1-5.1-0.2-7.8c0-0.2,0-0.2,0-0.2c0-0.2,0-0.3,0-0.2s0.1,0.5,0.1,0.6s0.2,1.1,0.3,1.9c0.2,0.8,0.6,3.5,0.6,4.8
				s0.1,2.4,0.1,2.3c0-0.1,0.1-0.2,0.1,0.4c0,0.5,0.1-0.3,0.3-1.9c0,0,0.4-5.1,0.4-6.3s-0.4-2.8,0-4.2c0.4-1.4,0.6-2.4,0.6-5.6
				c0-3.2,0-4.2,0-5.6c0-1.3,0-3,0-3c0-1.6-0.1-3.4-0.2-4.1c0,0,0,0-0.2-0.5c-0.3-1-0.6-2.3-0.8-3.4c0,0,0,0,0,0
				c0-0.1,0-0.3-0.1-0.5c0,0,0,0,0-0.2c0-1,0-2.8-0.2-3.6c-0.1-0.5-0.1-0.5-0.1-0.5c-0.5-1.3-0.9-2.3-0.9-2.3l0,0
				C106.9,37.4,109.1,34.4,110.2,32.8z M103.7,37.7c-0.1,0-0.1,0-0.1,0c-0.1,0-0.2,0-0.1,0C103.6,37.7,103.7,37.6,103.7,37.7
				C103.7,37.6,103.7,37.6,103.7,37.7C103.7,37.7,103.7,37.7,103.7,37.7z M103.2,36.6c0.2-0.2,0.3-0.3,0.3-0.2s-0.1,0.7-0.3,0.9
				s-0.3,0.2-0.4,0.1S103.1,36.8,103.2,36.6z M104.2,67.9c0.2,4.2,0.4,8.4,0.5,12.7c0,0.3,0,0.3,0,0.3c0,0.4,0,0.5,0,0.2
				s-0.1-0.5-0.1-0.5c0,0-0.2-0.1-0.2-0.1c0-0.1-0.1-0.7,0-1.4c0-0.7,0.1-3,0-3.6s-0.1-2.2-0.2-3.6c0,0,0,0-0.1-1.3
				c-0.1-1.5-0.1-1.7-0.1-1.7c-0.1-1.6-0.1-2.9-0.1-2.9c0,0,0,0,0,0c-0.4-2.7-0.3-5.8-0.3-5.8c0.1-1.6,0.1-3.6,0.1-4.4
				s-0.2-3.6-0.2-4.4c0,0,0,0,0-0.6c-0.2-3-0.2-5.9-0.1-8.9c0-0.1,0-0.1,0-0.1c0-0.1,0-0.6,0-1.1c0,0,0,0,0.1-0.5c0-0.2,0-0.2,0-0.2
				c0.1-0.3,0.1-0.3,0.1-0.1s0.1,1.6,0.2,2.6c0,0,0,0,0.1,0.9c0,0.4,0.1,0.8,0.1,1c0,1.1-0.1,3.1-0.1,3.1c-0.1,1.6-0.1,3.3-0.1,3.8
				c0,0.5,0.1,2.1,0.1,2.4c0,0,0,0,0,0.3c0,0.3,0,0.3,0,0.3c0,0.4,0,0.8,0,1s0.1,0.7,0.1,0.8c0,0,0,0,0,0.1c0,1.2,0,2.5,0,3.7
				c0,2.5,0.1,5,0.2,7.4C104.2,67.5,104.2,67.7,104.2,67.9z"/>
		</g>
	</g>
	<g class="st111">
		<g>
			
				<linearGradient id="SVGID_00000000222980537463864190000007134569958746216109_" gradientUnits="userSpaceOnUse" x1="113.4619" y1="119.0181" x2="115.1445" y2="119.0181" gradientTransform="matrix(1 0 0 -1 0 146)">
				<stop  offset="0" style="stop-color:#ABB5AB"/>
				<stop  offset="0.2552" style="stop-color:#7D827C"/>
				<stop  offset="0.5003" style="stop-color:#5C5D5A"/>
				<stop  offset="0.7139" style="stop-color:#464644"/>
				<stop  offset="0.8877" style="stop-color:#3A3838"/>
				<stop  offset="1" style="stop-color:#353333"/>
			</linearGradient>
			<path style="fill:url(#SVGID_00000000222980537463864190000007134569958746216109_);" d="M114.2,27.6c0.1,0,0.2,0,0.2-0.1
				c0.1-0.1,0.1-0.1,0.1-0.2c0,0-0.1-0.1-0.1-0.1s0.1,0,0.2-0.1c0.1,0,0.2-0.2,0.3-0.3s0.3-0.5,0.2-0.5s-0.3,0.2-0.5,0.4
				s-0.5,0.4-0.6,0.3c0,0,0,0-0.2,0c-0.2,0-0.2,0-0.2,0c-0.3,0.1-0.3,0.2,0,0.3C113.9,27.5,114.1,27.6,114.2,27.6z"/>
		</g>
	</g>
	<g class="st111">
		<g>
			
				<linearGradient id="SVGID_00000113322849113076614320000002855406042944524183_" gradientUnits="userSpaceOnUse" x1="114.0506" y1="118.0233" x2="114.7268" y2="118.0233" gradientTransform="matrix(1 0 0 -1 0 146)">
				<stop  offset="0" style="stop-color:#ABB5AB"/>
				<stop  offset="0.2552" style="stop-color:#7D827C"/>
				<stop  offset="0.5003" style="stop-color:#5C5D5A"/>
				<stop  offset="0.7139" style="stop-color:#464644"/>
				<stop  offset="0.8877" style="stop-color:#3A3838"/>
				<stop  offset="1" style="stop-color:#353333"/>
			</linearGradient>
			<path style="fill:url(#SVGID_00000113322849113076614320000002855406042944524183_);" d="M114.3,28.2c0.3-0.1,0.5-0.3,0.3-0.4
				c-0.2-0.1-0.4,0-0.5,0.1S114,28.3,114.3,28.2z"/>
		</g>
	</g>
	<g class="st111">
		<g>
			
				<linearGradient id="SVGID_00000151525635234727442350000003414953910867217808_" gradientUnits="userSpaceOnUse" x1="112.8858" y1="115.275" x2="113.8644" y2="115.275" gradientTransform="matrix(1 0 0 -1 0 146)">
				<stop  offset="0" style="stop-color:#ABB5AB"/>
				<stop  offset="0.2552" style="stop-color:#7D827C"/>
				<stop  offset="0.5003" style="stop-color:#5C5D5A"/>
				<stop  offset="0.7139" style="stop-color:#464644"/>
				<stop  offset="0.8877" style="stop-color:#3A3838"/>
				<stop  offset="1" style="stop-color:#353333"/>
			</linearGradient>
			<path style="fill:url(#SVGID_00000151525635234727442350000003414953910867217808_);" d="M113.9,30.1c-0.3,0.4-0.6,0.9-1,1.2
				C113.3,31.1,113.7,30.9,113.9,30.1z"/>
		</g>
	</g>
	<g class="st111">
		<g>
			
				<linearGradient id="SVGID_00000086682745306349893890000014945106937323748275_" gradientUnits="userSpaceOnUse" x1="109.9662" y1="85.4545" x2="118.345" y2="85.4545" gradientTransform="matrix(1 0 0 -1 0 146)">
				<stop  offset="0" style="stop-color:#ABB5AB"/>
				<stop  offset="0.2552" style="stop-color:#7D827C"/>
				<stop  offset="0.5003" style="stop-color:#5C5D5A"/>
				<stop  offset="0.7139" style="stop-color:#464644"/>
				<stop  offset="0.8877" style="stop-color:#3A3838"/>
				<stop  offset="1" style="stop-color:#353333"/>
			</linearGradient>
			<path style="fill:url(#SVGID_00000086682745306349893890000014945106937323748275_);" d="M116.3,71c-0.8-2.4-2-4.5-2.6-7
				c-0.1-0.3-0.1-0.6-0.2-0.9c0,0,0,0,0,0c0,0,0,0,0,0s0.2-1.1,0.3-2.4c0,0,0,0,0-1.7c0-2.2,0.6-6.8,0.6-7.4s-1.8-9.8-1.8-9.8
				c-0.3-1.5-0.5-1.5-0.4,0c0,0,0.2,4.3,0.4,6.3c0.2,2,0.6,5,0.4,8c-0.2,2.5-0.3,2.9-0.3,2.9c-0.3,1.5-0.7,2.6-0.8,2.3
				c0,0,0,0,0-0.3c0,0,0,0,0,0c0,0,0,0.1-0.1,0.4c0,0,0,0,0,0.2c0,0.3-0.1,0.5-0.1,0.8c-0.4,2.6,0.1,5.1-0.2,7.6
				c-0.1,1.1-0.6,1.8-0.9,2.9c-0.3,1-0.4,2.1-0.4,3.2c0,0.5-0.1,1.1-0.1,1.6c-0.1,0.8,0,1.3,0.1,1.7c0.3,0.7,0.9,0.9,1.9,0.9
				c0.4,0,0.9,0,1.4-0.1c1.4-0.1,4.3-0.8,4.8-2.1c0.1-0.3,0.2-0.6,0.2-1C118.3,75.4,116.8,72.6,116.3,71z"/>
		</g>
	</g>
	<g>
		<polyline class="st126" points="68.4,12.6 61.4,11.1 62.4,19.6 68,25.4 73.5,29.1 78.5,27.2 84.2,19.2 85.1,11 78.5,12.6 
			68.4,12.6 		"/>
		<g>
			
				<linearGradient id="SVGID_00000083063356651338466190000001733295207030598550_" gradientUnits="userSpaceOnUse" x1="61.59" y1="134.6913" x2="84.24" y2="134.6913" gradientTransform="matrix(1 0 0 -1 0 146)">
				<stop  offset="0" style="stop-color:#ABB5AB"/>
				<stop  offset="0.5697" style="stop-color:#FFFFFF"/>
				<stop  offset="0.6333" style="stop-color:#F5F5F5"/>
				<stop  offset="0.743" style="stop-color:#D9D9D9"/>
				<stop  offset="0.8846" style="stop-color:#ACACAC"/>
				<stop  offset="1" style="stop-color:#828282"/>
			</linearGradient>
			<path style="fill:url(#SVGID_00000083063356651338466190000001733295207030598550_);" d="M84.2,12.8l-0.8-4.2l-0.1-0.2
				c-11.4,6.4-20.5-0.2-20.5-0.2l-1.2,4.1C61.6,12.2,70.3,17,84.2,12.8z"/>
			<path class="st128" d="M84.2,12.8l-0.8-4.2l-0.1-0.2c-11.4,6.4-20.5-0.2-20.5-0.2l-1.2,4.1C61.6,12.2,70.3,17,84.2,12.8z"/>
			<path class="st129" d="M84.2,12.8l-0.8-4.2l-0.1-0.2c-11.4,6.4-20.5-0.2-20.5-0.2l-1.2,4.1C61.6,12.2,70.3,17,84.2,12.8z"/>
		</g>
		<rect x="70.5" y="15.5" class="st130" width="5.3" height="5.5"/>
		<rect x="71.1" y="15.8" class="st131" width="4.2" height="2.3"/>
		<g>
			<g>
				<defs>
					<polygon id="SVGID_00000068665217510386618280000016339787722855887528_" points="89.5,11.7 83.6,7.4 62.8,7 56.7,12.2 
						62.5,25.4 73.4,31.4 86.1,23.4 					"/>
				</defs>
				<clipPath id="SVGID_00000022556767390791868210000013321750083159528359_">
					<use xlink:href="#SVGID_00000068665217510386618280000016339787722855887528_"  style="overflow:visible;"/>
				</clipPath>
				<g style="clip-path:url(#SVGID_00000022556767390791868210000013321750083159528359_);">
					
						<linearGradient id="SVGID_00000106868795429627646750000011587702712794559629_" gradientUnits="userSpaceOnUse" x1="73.065" y1="116.31" x2="73.065" y2="139.17" gradientTransform="matrix(1 0 0 -1 0 146)">
						<stop  offset="0.4909" style="stop-color:#FFFFFF"/>
						<stop  offset="0.5662" style="stop-color:#F5F5F5"/>
						<stop  offset="0.6959" style="stop-color:#D9D9D9"/>
						<stop  offset="0.8635" style="stop-color:#ACACAC"/>
						<stop  offset="1" style="stop-color:#828282"/>
					</linearGradient>
					<path style="fill:url(#SVGID_00000106868795429627646750000011587702712794559629_);" d="M62.3,6.9
						c1.1,15.5,10.8,18.9,10.8,18.9l0.1,3.9l-2.6-1c-4.6-1.7-7.7-6.3-9.9-10.3c-0.8-1.5-1.6-2.9-2.1-4.5c-0.2-0.8-0.5-1.6-0.6-2.4
						c-0.1-0.7-0.3-1.3,0.3-1.8C59.5,8.7,61,7.8,62.3,6.9 M83.9,6.8c-1.1,15.5-10.8,19-10.8,19l0.1,3.9l1.9-0.5
						c4.6-1.7,8.2-6.8,10.4-10.9c0.8-1.5,1.6-2.9,2.1-4.5c0.3-0.8,0.5-1.6,0.6-2.4c0.1-0.7,0.3-1.3-0.3-1.8
						C86.6,8.6,85.2,7.8,83.9,6.8"/>
					<path class="st134" d="M62.3,6.9c1.1,15.5,10.8,18.9,10.8,18.9l0.1,3.9l-2.6-1c-4.6-1.7-7.7-6.3-9.9-10.3
						c-0.8-1.5-1.6-2.9-2.1-4.5c-0.2-0.8-0.5-1.6-0.6-2.4c-0.1-0.7-0.3-1.3,0.3-1.8C59.5,8.7,61,7.8,62.3,6.9 M83.9,6.8
						c-1.1,15.5-10.8,19-10.8,19l0.1,3.9l1.9-0.5c4.6-1.7,8.2-6.8,10.4-10.9c0.8-1.5,1.6-2.9,2.1-4.5c0.3-0.8,0.5-1.6,0.6-2.4
						c0.1-0.7,0.3-1.3-0.3-1.8C86.6,8.6,85.2,7.8,83.9,6.8"/>
					<path class="st135" d="M62.3,6.9c1.1,15.5,10.8,18.9,10.8,18.9l0.1,3.9l-2.6-1c-4.6-1.7-7.7-6.3-9.9-10.3
						c-0.8-1.5-1.6-2.9-2.1-4.5c-0.2-0.8-0.5-1.6-0.6-2.4c-0.1-0.7-0.3-1.3,0.3-1.8C59.5,8.7,61,7.8,62.3,6.9 M83.9,6.8
						c-1.1,15.5-10.8,19-10.8,19l0.1,3.9l1.9-0.5c4.6-1.7,8.2-6.8,10.4-10.9c0.8-1.5,1.6-2.9,2.1-4.5c0.3-0.8,0.5-1.6,0.6-2.4
						c0.1-0.7,0.3-1.3-0.3-1.8C86.6,8.6,85.2,7.8,83.9,6.8"/>
				</g>
			</g>
		</g>
		<g>
			<defs>
				<rect id="SVGID_00000006706838051718184990000005429667579953124774_" x="70.7" y="25.5" width="5" height="5.2"/>
			</defs>
			<clipPath id="SVGID_00000000209593489082855620000008118352733158970525_">
				<use xlink:href="#SVGID_00000006706838051718184990000005429667579953124774_"  style="overflow:visible;"/>
			</clipPath>
			
				<g transform="matrix(1 0 0 1 0 1.907349e-06)" style="clip-path:url(#SVGID_00000000209593489082855620000008118352733158970525_);">
				
					<use xlink:href="#pfl_x5F_logo"  width="58.5" height="60.9" id="XMLID_74_" x="-29.2" y="-30.4" transform="matrix(8.600000e-02 0 0 -8.600000e-02 72.9377 28.0966)" style="overflow:visible;"/>
			</g>
		</g>
	</g>
	<g>
		<g>
			<defs>
				<path id="SVGID_00000057852966259287299490000005824177831842013364_" d="M104.8,80.6L104.8,80.6l-0.2-0.2
					c-0.1-0.3-0.2-0.7-0.3-1.1c-0.1-0.2-0.1-0.5-0.2-0.7c-0.1-0.6-0.3-1.1-0.4-1.7c-0.3-1.3-0.7-2.6-1-4c-0.3-1.3-0.7-2.7-1-4.1
					c-0.3-1.1-0.5-2.2-0.8-3.3c-0.1-0.6-0.3-1.2-0.4-1.7c-0.3-2.5,0.5-5.2,0.6-7.7c0.2-4.6-0.3-9.3-0.1-13.9c0.2-3.4,0.9-5.7,3.6-8
					c1.5-1.2,3-1.8,4.6-2.9c0.9-0.7,3.9-5.6,4.7-5.4c2,0.7,2.9,6.6,3.5,8.2c0.7,2.2,2.4,4.9,2.4,7.2c0,0.6,1,6.4,1,7.2s1.2,9,1.2,9
					s1.4,4.3,1.7,5.8c0.2,1.4,1.6,5.1,1.8,6.2c0.2,0.8,0.5,1.6,0.8,2.4c0.4,0.9,0.5,1.9,0.7,2.9c0.1,0.6,0.2,1.3-0.2,1.8
					c-0.4,0.4-1.2,0.6-1.8,0.8c-1.5,0.6-3,1.2-4.5,1.7c-0.2,0.1-0.4,0.1-0.6,0.1c-0.2,0-0.4,0.1-0.6,0.2c-0.3,0.1-0.6,0.2-0.9,0.2
					c-0.3,0.1-0.6,0.1-0.9,0.1c-0.7,0-1.4,0.2-2.1,0.3c-0.5,0.1-1,0.1-1.5,0.1c-0.3,0-0.6,0.1-0.9,0.1c-0.2,0-0.4,0-0.5,0
					c-0.2,0-0.3,0-0.5,0c-0.7,0-1.4,0.1-2.1,0.2c-1.2,0.2-2.5-0.1-3.7-0.1c-0.3,0-0.7,0-1,0L104.8,80.6"/>
			</defs>
			<clipPath id="SVGID_00000128470198057108331420000010697215182931494838_">
				<use xlink:href="#SVGID_00000057852966259287299490000005824177831842013364_"  style="overflow:visible;"/>
			</clipPath>
			<g style="clip-path:url(#SVGID_00000128470198057108331420000010697215182931494838_);">
				<path class="st137" d="M119,34.7c0.2,0.7,0.4,1.8,0,2.3c-0.5,0.6-1.6,1-2.5,1.5c-0.8,0.5-2,1.4-2.4,1.1
					c-0.3-0.2-0.3-1.9,0.1-2.3c0.5-0.5,1.6-1,2.4-1.4C117.5,35.4,118.3,34.7,119,34.7z M116.7,35.9c-0.8,0.5-1.8,1-2.3,1.5
					c-0.6,0.5-0.2,1.6-0.2,2.2c1.4-0.4,3.1-1.8,4.7-2.6c0.3-0.6,0.3-1.5,0.1-2.2C118.3,34.8,117.5,35.4,116.7,35.9z"/>
				<path class="st137" d="M118.4,35.3c-0.6,0.5-0.8,1.5-1.7,1.3C117.2,36.2,117.8,35.8,118.4,35.3z"/>
				<path class="st137" d="M116.3,37.4c-0.4,0.5-0.2,1.2-1.1,1.5C115.2,38.3,115.6,37.6,116.3,37.4z"/>
				<path class="st137" d="M117,37.2c-0.1,0.4-0.1,0.8-0.7,1.1C116.2,37.9,116.4,37.4,117,37.2z"/>
				<path class="st137" d="M114.6,37.8c1.1-1.3,2.9-0.8,3.7-0.9C117.1,37.1,115.9,37.2,114.6,37.8z"/>
			</g>
		</g>
		<g>
			<defs>
				<path id="SVGID_00000119802227141659869300000011431648042921787308_" d="M104.8,80.6L104.8,80.6l-0.2-0.2
					c-0.1-0.3-0.2-0.7-0.3-1.1c-0.1-0.2-0.1-0.5-0.2-0.7c-0.1-0.6-0.3-1.1-0.4-1.7c-0.3-1.3-0.7-2.6-1-4c-0.3-1.3-0.7-2.7-1-4.1
					c-0.3-1.1-0.5-2.2-0.8-3.3c-0.1-0.6-0.3-1.2-0.4-1.7c-0.3-2.5,0.5-5.2,0.6-7.7c0.2-4.6-0.3-9.3-0.1-13.9c0.2-3.4,0.9-5.7,3.6-8
					c1.5-1.2,3-1.8,4.6-2.9c0.9-0.7,3.9-5.6,4.7-5.4c2,0.7,2.9,6.6,3.5,8.2c0.7,2.2,2.4,4.9,2.4,7.2c0,0.6,1,6.4,1,7.2s1.2,9,1.2,9
					s1.4,4.3,1.7,5.8c0.2,1.4,1.6,5.1,1.8,6.2c0.2,0.8,0.5,1.6,0.8,2.4c0.4,0.9,0.5,1.9,0.7,2.9c0.1,0.6,0.2,1.3-0.2,1.8
					c-0.4,0.4-1.2,0.6-1.8,0.8c-1.5,0.6-3,1.2-4.5,1.7c-0.2,0.1-0.4,0.1-0.6,0.1c-0.2,0-0.4,0.1-0.6,0.2c-0.3,0.1-0.6,0.2-0.9,0.2
					c-0.3,0.1-0.6,0.1-0.9,0.1c-0.7,0-1.4,0.2-2.1,0.3c-0.5,0.1-1,0.1-1.5,0.1c-0.3,0-0.6,0.1-0.9,0.1c-0.2,0-0.4,0-0.5,0
					c-0.2,0-0.3,0-0.5,0c-0.7,0-1.4,0.1-2.1,0.2c-1.2,0.2-2.5-0.1-3.7-0.1c-0.3,0-0.7,0-1,0L104.8,80.6"/>
			</defs>
			<clipPath id="SVGID_00000132056749815692393660000015601659778430921880_">
				<use xlink:href="#SVGID_00000119802227141659869300000011431648042921787308_"  style="overflow:visible;"/>
			</clipPath>
			<g style="clip-path:url(#SVGID_00000132056749815692393660000015601659778430921880_);">
				<polygon class="st126" points="121.7,54.8 123.4,54.5 128.5,58.9 129.1,59.6 130.9,61.4 132.4,63.4 134.3,66.7 134.4,67.1 
					133.1,66.6 129.6,66.7 128.7,67 129,67.6 130.5,69 131.4,70.1 126.5,68.4 123.6,67.9 120.6,68.5 119.2,70 118.3,72.8 117.7,71 
					117.4,68.7 117.9,67 117.7,65.7 115.1,64.5 113.6,64.1 112.3,64.4 111,63.4 110.6,62.3 109.7,60.8 110.3,60 111.2,59.7 
					112.4,59.5 113.3,59 114.4,57.8 115.8,56.5 116.6,55.6 116.6,55.2 118.4,54.6 120.2,54.7 				"/>
				<path class="st3" d="M131.3,70.4l0.1-0.2L129,69l-2.3-0.8l-1.9-0.5h0l-1.5-0.2h0l-0.9,0.1h0l-1.2,0.3l0,0l-0.7,0.4l0,0l-0.8,0.6
					l0,0l-0.7,1l0,0l-0.4,1l0,0l-0.2,1.3l-0.2,0.8l0.2,0.1l0.2-0.1l-0.9-2l-0.1-2l0.3-1.3l0.2-0.6l0,0l0-1.1v-0.1l-0.8-0.7l0,0
					l-1.3-0.4l-1.3-0.4L114,64l-0.1,0l-0.8,0.1l-0.8-0.1l-0.8-0.1l-0.6-0.3v-0.6v0l-0.1-0.6v0l-0.4-0.8l0,0l-0.4-0.5v-0.5l0.4-0.4
					l0.7-0.2l0.8-0.1l0.7-0.1l0,0l0.8-0.4l0.1,0l0.7-1l0.7-0.9l0.8-0.5l0.6-0.4l0.1-0.1l0.2-0.7l0,0l0-0.3l2-0.4l0.7-0.1l0.8,0.3h0
					l0.7,0.2l0.1,0l0.8-0.1h0l0.9-0.3l0.9,0.1l0.8,0.5l0.8,0.9l1.6,1.5l1.2,1l0.8,0.7c1.8,1.5,3,3.6,4.3,5.5
					c0.5,0.8,0.9,1.5,1.3,2.4l0.2-0.1l0.2-0.2c-0.8-0.7-1.7-0.9-2.6-0.9c-0.5,0-1.1,0.1-1.6,0.1c-0.3,0-0.8,0-1.2,0.1
					c-0.2,0-0.4,0.1-0.6,0.1c-0.2,0.1-0.4,0.2-0.4,0.5c0,0.3,0.2,0.5,0.4,0.8c0.4,0.4,1.1,0.7,1.3,1.1l0.9,1.5L131.3,70.4l0.1-0.2
					L131.3,70.4l0.2-0.1l-0.9-1.5c-0.4-0.6-1.1-0.8-1.4-1.2c-0.2-0.2-0.3-0.4-0.3-0.4h0l0,0v0h0l0,0c0,0,0.3-0.1,0.6-0.2
					c0.3,0,0.7,0,1-0.1c0.5-0.1,1.1-0.1,1.5-0.1c0.8,0,1.6,0.2,2.3,0.8l0.4-0.3c-0.4-0.9-0.8-1.7-1.3-2.5c-1.3-2-2.5-4.1-4.4-5.7
					l-0.8-0.7l-1.2-1l-1.6-1.5l-0.2,0.2l0.2-0.2l-0.9-0.9l0,0l-0.9-0.6l-0.1,0l-1.1-0.1l-0.1,0l-0.9,0.3l-0.7,0.1l-0.6-0.2l-0.9-0.3
					l-0.1,0l-0.9,0.1h0l-2.5,0.5l0.1,0.7L116,56l-0.5,0.4l-0.8,0.5l0,0l-0.7,0.9l-0.7,0.8l-0.7,0.3l-0.7,0.1h0l-0.8,0.1h0l-0.8,0.3
					l-0.1,0l-0.6,0.5l-0.1,0.1V61v0.1l0.5,0.6l0.3,0.7l0.1,0.6v0.7v0.2l0.9,0.5l0,0l0.9,0.2h0l0.8,0.1h0l0.7-0.1l0.7,0.3l0,0
					l1.3,0.4h0l1.2,0.4l0.6,0.5l0,0.8l-0.2,0.6l0,0l-0.3,1.4l0,0l0.1,2.1v0.1l1.2,2.8l0.3-1.6l0,0l0.2-1.2l0.4-1l0.6-0.9l0.7-0.5
					l0.6-0.3l1.2-0.3l0.8-0.1l1.4,0.2l1.8,0.4l2.3,0.8L132,71l-0.5-0.8L131.3,70.4z"/>
				
					<linearGradient id="SVGID_00000097475079537482810930000005722704343262305700_" gradientUnits="userSpaceOnUse" x1="-289.7894" y1="-217.7834" x2="-287.7893" y2="-217.7834" gradientTransform="matrix(9.5524 -2.3721 2.3721 9.5524 3395.7666 1456.5436)">
					<stop  offset="0" style="stop-color:#BF2032"/>
					<stop  offset="5.650000e-03" style="stop-color:#BF2032"/>
					<stop  offset="0.3248" style="stop-color:#BD2132"/>
					<stop  offset="0.4601" style="stop-color:#B52332"/>
					<stop  offset="0.5607" style="stop-color:#A82731"/>
					<stop  offset="0.644" style="stop-color:#962B30"/>
					<stop  offset="0.7167" style="stop-color:#802C2D"/>
					<stop  offset="0.782" style="stop-color:#672A29"/>
					<stop  offset="0.8417" style="stop-color:#4C2624"/>
					<stop  offset="0.8955" style="stop-color:#2F1C1A"/>
					<stop  offset="0.9455" style="stop-color:#060404"/>
					<stop  offset="0.9492" style="stop-color:#010101"/>
					<stop  offset="1" style="stop-color:#010101"/>
				</linearGradient>
				<path style="fill:url(#SVGID_00000097475079537482810930000005722704343262305700_);" d="M113.8,62.5c-0.6-0.2-0.8-1-1.3-1.4
					c-0.7-0.5-1.2-0.3-2,0c0.2-0.1,0.6-0.9,1-1c0.7-0.2,1.3,0,1.9-0.4c0.7-0.4,1.1-1,1.5-1.6c0.7-0.8,2.1-1.3,2.3-2.4l1.3-0.4
					l1.6,0.2c0,0,0.4,0.1,0.7,0.1c0.3,0,0.9,0.1,0.9,0.1l0.8-0.2l0.5-0.3l0.5,0.2l0.7,0.4l2,3l1.1,0.8l0.7,0.7l0.6,0.6l1,0.9
					l1.6,1.6l-4.1-2.2l-1.3-0.5l-1.6-0.5l-1.4-0.1l2.1,1.2l1.1,0.9l1.3,1.4l0.3,0.8l0.6,1.1l-6-2l0.1-0.8l0.3-0.9c0,0,0.1-0.2,0-0.6
					c-0.2-0.7-1-2.1-1.8-2c0.7,1.3-0.6,3.9-2.2,3.3l-0.6-0.2l-0.4-0.2l-0.4-0.5l-0.3-0.2l-0.5,0l-0.1,0.3c-0.6,0.2-1.5,0.6-2.2,0.5
					L113.8,62.5z"/>
				<path class="st126" d="M113.8,62.5l0.1-0.4c-0.2-0.1-0.3-0.2-0.5-0.5c-0.2-0.2-0.4-0.6-0.7-0.8l0,0l0,0
					c-0.4-0.3-0.8-0.4-1.1-0.4c-0.4,0-0.8,0.2-1.3,0.3l0.2,0.7c0.2-0.1,0.3-0.2,0.4-0.3c0.2-0.3,0.5-0.7,0.7-0.7l0,0l0,0
					c0.3-0.1,0.6-0.1,0.9-0.1c0.3,0,0.7-0.1,1.1-0.3c0.8-0.4,1.2-1.1,1.6-1.7c0.3-0.3,0.8-0.7,1.3-1c0.5-0.4,1-0.8,1.1-1.5l-0.4,0
					l0.1,0.4l1.3-0.4l1.5,0.1l0-0.4l-0.1,0.4c0,0,0.4,0.1,0.7,0.1l0,0h0c0.2,0,0.9,0.1,0.9,0.1l0.1,0l0.8-0.2l0.1,0l0.3-0.2l0.3,0.1
					l0.6,0.3l2,3L127,60l0.7,0.7l0,0l0.6,0.6l1,0.9l1.6,1.6l0.3-0.3l0.2-0.3l-4.1-2.2l-1.3-0.5h0l-1.6-0.5l0,0l-1.4-0.1l-0.2,0.7
					l2.1,1.2l1.1,0.9l1.3,1.3l0.3,0.8l0,0l0.2,0.3l-4.8-1.5l0-0.4l0.3-0.9l-0.4-0.1l0.3,0.2c0,0,0.1-0.2,0.1-0.5l-0.1-0.4
					c-0.1-0.4-0.3-0.9-0.7-1.4c-0.3-0.5-0.8-0.9-1.4-0.9l-0.1,0l-0.6,0.1l0.3,0.5c0.1,0.2,0.2,0.4,0.2,0.7c0,0.5-0.2,1-0.5,1.5
					c-0.3,0.4-0.7,0.7-1.1,0.7l-0.3-0.1l-0.1,0.4l0.1-0.4l-0.6-0.2l-0.3-0.1l-0.3-0.4l0,0l-0.4-0.2l-0.1-0.1l-0.7,0.1l-0.2,0
					l-0.2,0.5l0.4,0.1l-0.1-0.4c-0.7,0.2-1.5,0.5-2,0.5h-0.1l0,0.4l0.1-0.4l-0.4-0.1L113.8,62.5l0.1-0.4L113.8,62.5l-0.1,0.4
					l0.4,0.1h0h0h0.1c0.8,0,1.6-0.4,2.2-0.5l0.2,0l0.1-0.3l0.2,0l0.2,0.1l0.3,0.4l0.1,0.1l0.5,0.2h0l0.6,0.2h0h0
					c0.2,0.1,0.4,0.1,0.6,0.1c0.7,0,1.3-0.4,1.7-1c0.4-0.5,0.6-1.2,0.6-1.9c0-0.4-0.1-0.7-0.2-1l-0.3,0.2l0.1,0.4h0
					c0.2,0,0.5,0.2,0.8,0.6c0.3,0.4,0.5,0.8,0.6,1.1l0,0.2l0,0.1v0l0.2,0.1l-0.2-0.1l0,0l0.2,0.1l-0.2-0.1l0,0l-0.3,1l0,0l-0.1,0.8
					l0,0.3l7.3,2.4l-1.1-2l-0.3-0.8l0-0.1l-1.4-1.5l-1.2-0.9l0,0l-2.2-1.2l-0.2,0.3l0,0.4l1.3,0.1l1.5,0.5l1.3,0.5l4.1,2.2l0.5-0.6
					l-1.6-1.6l-1-1l-0.6-0.6l-0.3,0.3l0.3-0.3l-0.7-0.7l0,0l-1.1-0.8l-2-3.1l-0.7-0.4l0,0l-0.5-0.2l-0.2-0.1l-0.6,0.4l-0.7,0.2
					l0.1,0.4l0.1-0.4c0,0-0.7-0.1-1-0.1l0,0.4l0-0.4c-0.2,0-0.6-0.1-0.6-0.1l0,0l-1.6-0.2l-0.1,0l-1.4,0.5l-0.2,0.1l0,0.2
					c0,0.4-0.3,0.7-0.8,1c-0.4,0.3-1,0.7-1.4,1.2c-0.5,0.6-0.8,1.2-1.4,1.5c-0.3,0.1-0.5,0.2-0.8,0.2s-0.7,0-1.1,0.2l0,0
					c-0.4,0.1-0.6,0.5-0.8,0.7l-0.2,0.3l-0.1,0.1l0,0l0,0l0,0l0,0l0,0l0.1,0.2l-0.1-0.2l0,0l0.1,0.2l-0.1-0.2l0.1,0.4l0.1,0.4
					c0.4-0.2,0.8-0.3,1-0.3c0.2,0,0.4,0,0.7,0.2l0,0l0,0c0.2,0.1,0.3,0.4,0.5,0.7c0.2,0.3,0.4,0.6,0.9,0.8l0,0h0L113.8,62.5z"/>
				<path class="st3" d="M126.3,52.5c-0.2-0.2-0.4-0.4-0.6-0.6c-0.2-0.2-0.4-0.3-0.7-0.4l-0.4-0.2c0.3-0.1,0.7,0.1,1,0.2
					c0.4,0,0.8,0.1,1.2,0.2c1.1,0.4,1.7,1.5,2,2.6c0.2,0.6,0.3,1.5,0,2.1c-0.2,0.5-0.7,0.8-1.2,1.2c-1,0.6-2.2,1-3.1,1.2
					c-0.7,0.2-1.6,0.5-2.3,0.4c-0.5-0.1-0.7-0.4-0.9-0.8c-0.1-0.2-0.2-0.6-0.1-0.9l0.2-0.3c0.3-0.3,0.8-0.5,1.2-0.6
					c0.6-0.1,1.2-0.3,1.7-0.4c0.5-0.2,1-0.4,1.5-0.6c0.4-0.2,0.7-0.7,0.8-1.1l0.1-0.5c0.1-0.3,0-0.6-0.2-0.8
					C126.6,52.9,126.5,52.7,126.3,52.5L126.3,52.5z"/>
				<path class="st126" d="M126.3,52.5l0.2-0.2c-0.2-0.2-0.4-0.5-0.6-0.7l-0.2,0.2l0.2-0.2c-0.2-0.2-0.5-0.3-0.7-0.4l-0.1,0.2
					l0.1-0.2l-0.4-0.2l-0.1,0.2l0.1,0.2l0.1,0c0.2,0,0.4,0.1,0.8,0.2l0,0c0.4,0,0.8,0.1,1.1,0.2l0,0c1,0.4,1.6,1.3,1.8,2.4
					c0.1,0.3,0.2,0.8,0.2,1.1c0,0.3,0,0.5-0.1,0.8l0.2,0.1l-0.2-0.1c-0.2,0.4-0.6,0.8-1.1,1.1c-0.9,0.6-2.2,1-3,1.2h0h0
					c-0.6,0.2-1.3,0.4-1.9,0.4l-0.3,0c-0.4-0.1-0.5-0.3-0.7-0.7c-0.1-0.2-0.1-0.4-0.1-0.6l0-0.1l-0.3,0l0.2,0.1l0.2-0.3l-0.2-0.1
					l0.2,0.2c0.3-0.3,0.7-0.4,1.1-0.5c0.6-0.1,1.2-0.3,1.8-0.4c0.5-0.2,1.1-0.4,1.5-0.6c0.5-0.2,0.8-0.8,1-1.2v0l0.2-0.5l0,0l0,0
					l0-0.3c0-0.3-0.1-0.5-0.2-0.8c-0.1-0.2-0.2-0.5-0.4-0.7L126.3,52.5l0.2-0.1v0l0,0l0,0L126.3,52.5l-0.2,0.1l0,0l0,0l0,0
					c0.1,0.2,0.2,0.3,0.3,0.6c0.1,0.2,0.2,0.4,0.2,0.5l0,0.1l0.2,0.1l-0.2-0.1l-0.1,0.5l0.2,0.1l-0.2-0.1c-0.1,0.4-0.4,0.8-0.7,0.9
					c-0.5,0.2-1,0.4-1.5,0.6c-0.6,0.2-1.1,0.3-1.7,0.4c-0.5,0.1-1,0.2-1.4,0.6l0,0l-0.2,0.3l0,0l0,0l0,0.2c0,0.3,0.1,0.6,0.2,0.8
					c0.2,0.5,0.5,0.9,1.1,1l0.4,0c0.7,0,1.4-0.3,2-0.4l0,0c0.9-0.2,2.1-0.6,3.2-1.2c0.6-0.3,1-0.8,1.3-1.3v0v0
					c0.1-0.3,0.2-0.7,0.2-1c0-0.5-0.1-0.9-0.2-1.3c-0.3-1.2-0.9-2.3-2.2-2.8l0,0c-0.4-0.2-0.8-0.2-1.2-0.3h0h0
					c-0.2,0-0.5-0.2-0.8-0.2l-0.3,0.1l-0.5,0.2l0.9,0.5h0l0,0c0.2,0.1,0.5,0.2,0.6,0.4l0,0l0,0c0.2,0.2,0.4,0.4,0.5,0.6L126.3,52.5
					l-0.2,0.1L126.3,52.5z"/>
				<polygon class="st3" points="112.2,61.6 111.6,61.3 111.2,61.7 112.7,66.8 113,67 113.5,66.1 				"/>
				<polygon class="st126" points="112.2,61.6 112.3,61.4 111.7,61.1 111.5,61 111,61.5 110.9,61.6 112.4,67 112.8,67.2 113.1,67.3 
					113.7,66.3 113.8,66.2 112.4,61.4 112.3,61.4 112.2,61.6 111.9,61.7 113.2,66.1 112.9,66.6 112.9,66.6 111.5,61.8 111.6,61.6 
					112.1,61.9 112.2,61.6 111.9,61.7 				"/>
				<path class="st126" d="M118.5,57.8c-0.6,0.7-1.4,1.7-1.5,0.5c-0.6,0-1.1,0.4-1.5,0.7c0.2-0.2,0.3-0.5,0.5-0.7
					c0.2-0.2,0.3-0.3,0.6-0.5c0.2-0.1,0.4-0.3,0.7-0.4c0.4-0.2,0.8-0.4,1.2-0.6c0.3-0.1,0.9-0.5,1.3-0.3c0.2,0.1,0.1,0.1-0.1,0.2
					c-0.2,0.1-0.4,0.2-0.6,0.4C118.8,57.3,118.7,57.5,118.5,57.8z"/>
				<path class="st126" d="M118.5,57.8L118.5,57.8c-0.3,0.2-0.5,0.4-0.7,0.6c-0.2,0.2-0.4,0.3-0.5,0.3l-0.1-0.1
					c0-0.1-0.1-0.2-0.1-0.4l0-0.1l-0.1,0c-0.6,0-1.2,0.4-1.6,0.8l0.2,0.2c0.2-0.2,0.4-0.5,0.5-0.7c0.2-0.2,0.3-0.3,0.5-0.4l0,0
					c0.2-0.1,0.4-0.3,0.7-0.4l0,0l0,0c0.4-0.2,0.8-0.4,1.2-0.5h0h0c0.3-0.1,0.7-0.3,1-0.3l0.2,0l0,0l0.1,0l0.1-0.1h-0.1l0,0.1
					l0.1-0.1h-0.1h0.1l-0.1-0.1l0,0.1h0.1l-0.1-0.1l-0.2,0.1c-0.2,0.1-0.4,0.2-0.6,0.4l0,0l0,0c-0.1,0.1-0.3,0.3-0.5,0.5l0,0l0,0
					L118.5,57.8L118.5,57.8c0.3-0.1,0.5-0.4,0.5-0.4l-0.1-0.1l0.1,0.1c0.2-0.1,0.4-0.3,0.6-0.4l0.1-0.1l0.1-0.2l-0.2-0.2l0,0
					l-0.3-0.1c-0.4,0-0.9,0.2-1.1,0.3l0,0l0,0c-0.4,0.2-0.8,0.3-1.2,0.6l0.1,0.1l-0.1-0.1c-0.2,0.1-0.4,0.3-0.7,0.4l0,0l0,0
					c-0.2,0.2-0.4,0.3-0.6,0.5c-0.2,0.2-0.3,0.5-0.5,0.7l0.2,0.2c0.4-0.3,0.9-0.7,1.5-0.7l0-0.1l-0.1,0c0,0.2,0.1,0.4,0.2,0.5
					l0.3,0.2c0.2,0,0.4-0.2,0.7-0.4c0.2-0.2,0.4-0.5,0.6-0.7L118.5,57.8L118.5,57.8L118.5,57.8z"/>
			</g>
		</g>
	</g>
	<g>
		<g>
			<defs>
				<path id="SVGID_00000048480089335771226680000002406387716878343612_" d="M33,29.3c0,0-3.7,14.8-4.3,16.1
					c-1.9,3.7-2.8,8.2-3.6,12.3c-0.6,3.2-2.4,6.1-2.8,9.4c-0.3,2.7-1.5,5.2-1.9,8c-0.2,1.7-0.5,1.2,0.8,2.2c0.9,0.7,2.6,1.2,3.6,1.4
					c2,0.4,3.7,1,5.8,1.7c4.5,1.5,8.7,2.5,13.4,2.5L43.7,68c0,0,0.2-10.3,0.2-11.3c0-1-1-9.4-1-9.4l-1.2-5.7l-4.1-7.4L33,29.3"/>
			</defs>
			<clipPath id="SVGID_00000083807905649819039350000003608227519543733422_">
				<use xlink:href="#SVGID_00000048480089335771226680000002406387716878343612_"  style="overflow:visible;"/>
			</clipPath>
			<g style="clip-path:url(#SVGID_00000083807905649819039350000003608227519543733422_);">
				<path class="st137" d="M35,37.2c-0.3,0.7-1,1.6-1.6,1.6c-0.8,0.1-1.8-0.4-2.8-0.7c-0.9-0.2-2.4-0.5-2.5-0.9
					c0-0.4,1.2-1.6,1.7-1.5c0.8,0,1.8,0.5,2.7,0.7C33.5,36.6,34.5,36.7,35,37.2 M32.5,36.5c-1-0.2-2-0.6-2.7-0.6
					c-0.8,0-1.3,1-1.7,1.4c1.3,0.7,3.5,0.9,5.1,1.5c0.7-0.2,1.3-0.9,1.6-1.5C34.5,36.8,33.4,36.7,32.5,36.5"/>
				<path class="st137" d="M34.2,37.2c-0.7-0.1-1.7,0.5-2.1-0.2C32.7,37,33.4,37.1,34.2,37.2z"/>
				<path class="st137" d="M31.2,37.2c-0.6,0.1-0.9,0.7-1.9,0.3C29.8,37.1,30.5,36.8,31.2,37.2z"/>
				<path class="st137" d="M31.8,37.5c-0.3,0.2-0.6,0.5-1.3,0.2C30.8,37.5,31.3,37.2,31.8,37.5z"/>
				<path class="st137" d="M29.8,36.3c1.8-0.2,2.6,1.5,3.3,2C32,37.5,31.1,36.8,29.8,36.3"/>
			</g>
		</g>
		<g>
			<defs>
				<path id="SVGID_00000000204616394838375430000004607134204713443996_" d="M33,29.3c0,0-3.7,14.8-4.3,16.1
					c-1.9,3.7-2.8,8.2-3.6,12.3c-0.6,3.2-2.4,6.1-2.8,9.4c-0.3,2.7-1.5,5.2-1.9,8c-0.2,1.7-0.5,1.2,0.8,2.2c0.9,0.7,2.6,1.2,3.6,1.4
					c2,0.4,3.7,1,5.8,1.7c4.5,1.5,8.7,2.5,13.4,2.5L43.7,68c0,0,0.2-10.3,0.2-11.3c0-1-1-9.4-1-9.4l-1.2-5.7l-4.1-7.4L33,29.3"/>
			</defs>
			<clipPath id="SVGID_00000083060785781845296920000009652243472090174858_">
				<use xlink:href="#SVGID_00000000204616394838375430000004607134204713443996_"  style="overflow:visible;"/>
			</clipPath>
			<g style="clip-path:url(#SVGID_00000083060785781845296920000009652243472090174858_);">
				<polygon class="st126" points="24.5,54.9 22.8,54.5 17.8,59 17.1,59.7 15.3,61.4 13.9,63.5 11.9,66.8 11.9,67.1 13.2,66.6 
					16.6,66.8 17.5,67.1 17.2,67.6 15.7,69.1 14.8,70.1 19.7,68.4 22.6,67.9 25.6,68.5 27,70 27.9,72.8 28.5,71 28.9,68.7 28.3,67 
					28.5,65.7 31.1,64.6 32.6,64.1 33.9,64.5 35.2,63.5 35.6,62.3 36.5,60.8 36,60 35.1,59.8 33.8,59.6 33,59.1 31.8,57.8 
					30.5,56.5 29.7,55.6 29.7,55.2 27.9,54.7 26.1,54.8 				"/>
				<path class="st3" d="M14.9,70.4l0.1,0.2l2.4-1.1l2.3-0.8l1.8-0.4l1.5-0.2l0.8,0.1l1.2,0.3l0.6,0.3l0.7,0.5l0.6,0.9l0.4,1
					l0.2,1.2l0,0l0.2,0.8l0.2,0.8l1.2-2.8l0.1-2.1v0l-0.3-1.4v0L28.6,67l0-0.8l0.6-0.5l1.2-0.4l1.3-0.4h0l0.7-0.3l0.6,0.1h0l0.9-0.1
					h0l0.9-0.2l0,0l0.8-0.5l0.1-0.1l0-0.9l0-0.6l0.3-0.7l0.5-0.5l0.1-0.1v-0.8v-0.1l-0.6-0.6l0,0l-0.8-0.3l0,0l-0.8-0.1h0l-0.7-0.1
					L33,58.7l-0.7-0.8l0,0L31.7,57l0,0l-0.8-0.6l0,0L30.3,56l-0.1-0.4l0-0.5l0-0.2l-2.5-0.5L27,54.2l-0.1,0l-1,0.3l-0.6,0.2
					l-0.7-0.1l-0.9-0.3l-0.1,0l-1.1,0.1l-0.1,0l-0.9,0.6l0,0L20.7,56l-1.6,1.5l-1.1,1l-0.8,0.7l0,0c-1.8,1.6-3.1,3.7-4.4,5.7l0,0
					l0,0c-0.5,0.8-1,1.6-1.3,2.5l0.4,0.3c0.7-0.6,1.4-0.8,2.3-0.8c0.5,0,1,0.1,1.5,0.1h0h0c0.3,0,0.8,0,1.2,0.1
					c0.2,0,0.3,0.1,0.4,0.1l0.1,0l0,0h0v0l0,0h0c0,0,0,0.2-0.3,0.4l0,0c-0.3,0.3-1,0.6-1.4,1.2l-0.9,1.5L14.3,71l0.8-0.4L14.9,70.4
					l0.2,0.1l0.9-1.5l0,0l0,0c0.2-0.3,0.9-0.7,1.3-1.1l0,0l0,0c0.3-0.3,0.4-0.5,0.5-0.8c0-0.2-0.2-0.4-0.4-0.5
					c-0.5-0.2-1.3-0.2-1.8-0.2l0,0c-0.5,0-1.1-0.1-1.6-0.1c-0.9,0-1.8,0.2-2.6,0.9l0.2,0.2l0.2,0.1c0.3-0.8,0.8-1.6,1.3-2.4l0,0l0,0
					c1.3-2,2.5-4,4.3-5.5l0.8-0.7l0,0l1.2-1l0,0l1.6-1.5l0.8-0.9l0.8-0.5l0.9-0.1l0.9,0.3l0,0l0.8,0.1l0,0l0.7-0.2h0l0.9-0.3
					l0.7,0.1l2,0.4l0,0.3v0l0.1,0.6l0,0.1l0.7,0.5l0.7,0.5l0.7,0.9l0,0l0.7,0.9l0,0l0.9,0.4l0,0l0.8,0.1l0.8,0.1l0.7,0.2l0.4,0.4
					v0.5l-0.4,0.4l0,0l-0.4,0.8l0,0l-0.1,0.7v0v0.6l-0.6,0.3L33.8,64L33,64L32.4,64l-0.1,0l-0.8,0.4l-1.3,0.4l-1.3,0.4l0,0l-0.8,0.7
					l-0.1,0.1l0,1.1v0l0.2,0.6l0.3,1.3l-0.1,2l-0.9,2l0.2,0.1l0.2-0.1L28,72.3l-0.2-1.2v0l-0.4-1l0,0l-0.7-1l0,0l-0.8-0.6l0,0
					L25.2,68l0,0l-1.2-0.3h0L23,67.5l0,0l-1.5,0.2h0l-1.9,0.5h0L17.2,69l-2.4,1.1L14.9,70.4l0.2,0.1L14.9,70.4z"/>
				
					<linearGradient id="SVGID_00000173855000928972725980000003552196079679712641_" gradientUnits="userSpaceOnUse" x1="-356.9759" y1="-234.4745" x2="-354.9759" y2="-234.4745" gradientTransform="matrix(-9.5527 -2.3722 -2.3722 9.5527 -3931.0359 1456.6445)">
					<stop  offset="0" style="stop-color:#BF2032"/>
					<stop  offset="5.650000e-03" style="stop-color:#BF2032"/>
					<stop  offset="0.3248" style="stop-color:#BD2132"/>
					<stop  offset="0.4601" style="stop-color:#B52332"/>
					<stop  offset="0.5607" style="stop-color:#A82731"/>
					<stop  offset="0.644" style="stop-color:#962B30"/>
					<stop  offset="0.7167" style="stop-color:#802C2D"/>
					<stop  offset="0.782" style="stop-color:#672A29"/>
					<stop  offset="0.8417" style="stop-color:#4C2624"/>
					<stop  offset="0.8955" style="stop-color:#2F1C1A"/>
					<stop  offset="0.9455" style="stop-color:#060404"/>
					<stop  offset="0.9492" style="stop-color:#010101"/>
					<stop  offset="1" style="stop-color:#010101"/>
				</linearGradient>
				<path style="fill:url(#SVGID_00000173855000928972725980000003552196079679712641_);" d="M32.5,62.5c0.6-0.2,0.8-1,1.3-1.4
					c0.7-0.5,1.2-0.3,2,0c-0.2-0.1-0.5-0.9-1-1c-0.7-0.2-1.3,0-1.9-0.4c-0.7-0.4-1-1-1.5-1.6c-0.7-0.8-2.1-1.3-2.3-2.4l-1.4-0.4
					l-1.6,0.2c0,0-0.4,0.1-0.7,0.1c-0.3,0-0.9,0.1-0.9,0.1l-0.8-0.2l-0.5-0.3l-0.5,0.2l-0.6,0.4l-2,3L19,59.7l-0.7,0.7L17.6,61
					l-1,0.9l-1.6,1.6l4.1-2.2l1.3-0.5l1.6-0.5l1.4-0.1l-2.1,1.2l-1.1,0.9l-1.4,1.4l-0.3,0.8l-0.6,1.1l6-2L23.9,63l-0.3-0.9
					c0,0-0.1-0.2,0-0.6c0.2-0.7,1-2.1,1.9-2c-0.7,1.3,0.5,3.9,2.2,3.3l0.6-0.2l0.4-0.2l0.4-0.5l0.3-0.2l0.5,0L30,62
					c0.6,0.2,1.5,0.6,2.2,0.5L32.5,62.5z"/>
				<path class="st126" d="M32.5,62.5l0.1,0.4c0.4-0.2,0.7-0.5,0.9-0.8s0.4-0.5,0.5-0.7l0,0l0,0c0.3-0.2,0.5-0.2,0.7-0.2
					c0.2,0,0.6,0.1,1,0.3l0.1-0.4l0.1-0.4l-0.1,0.2l0.1-0.2l0,0l-0.1,0.2l0.1-0.2v0l0,0l0,0v0l0,0c0,0-0.2-0.2-0.3-0.5
					c-0.2-0.2-0.4-0.5-0.7-0.6l0,0c-0.4-0.1-0.8-0.1-1.1-0.2c-0.3,0-0.5-0.1-0.8-0.2c-0.6-0.3-0.9-0.9-1.4-1.5l0,0
					c-0.4-0.5-1-0.8-1.4-1.2c-0.5-0.3-0.8-0.7-0.8-1l0-0.2l-1.6-0.5l-0.1,0l-1.7,0.2h0l0,0c0,0-0.4,0.1-0.6,0.1l0,0.4l0-0.4
					c-0.3,0-1,0.1-1,0.1l0.1,0.4l0.1-0.4l-0.7-0.2l-0.4-0.3l-0.2-0.1l-0.7,0.3l0,0l-0.7,0.4l-0.1,0l-2,3.1l-1.1,0.8l0,0L18,60.2
					l-0.6,0.6l-1,0.9v0l-1.6,1.6l0.5,0.6l4.1-2.2l1.3-0.5l1.5-0.5l1.4-0.1l0-0.4l-0.2-0.3l-2.1,1.2L20,62.1l0,0l-1.4,1.5l-0.3,0.9
					l-0.6,1.1l-0.5,0.9l7.3-2.4L24.3,63v0L24,62l0,0l0,0L23.7,62l0.2-0.1l0,0L23.7,62l0.2-0.1l0-0.1l0-0.2l0,0
					c0.1-0.3,0.3-0.7,0.6-1.1c0.3-0.4,0.6-0.6,0.8-0.6h0l0-0.4l-0.3-0.2c-0.2,0.3-0.2,0.7-0.2,1c0,0.7,0.2,1.3,0.6,1.9
					c0.4,0.5,1,1,1.7,1c0.2,0,0.4,0,0.6-0.1l0.6-0.2h0l0.4-0.2l0.1,0l0.4-0.5l0.2-0.1l0.2,0l0,0.1l0.1,0.2l0.2,0
					c0.5,0.1,1.4,0.5,2.2,0.5h0.1h0l0.4-0.1h0l0,0L32.5,62.5l-0.1-0.4L32,62.2l0.1,0.4l0-0.4H32c-0.5,0-1.3-0.4-2-0.5L30,62.1
					l0.4-0.1l-0.1-0.3l-0.1-0.2l-0.8-0.1l-0.1,0l-0.4,0.3l0,0L28.4,62l-0.3,0.1l-0.6,0.2l0.1,0.4l-0.1-0.4l-0.4,0.1
					c-0.4,0-0.8-0.2-1.1-0.7c-0.3-0.4-0.5-1-0.5-1.5c0-0.3,0-0.5,0.1-0.7l0.3-0.5l-0.6-0.1l-0.1,0c-0.6,0-1.1,0.5-1.5,0.9
					s-0.6,1-0.7,1.4v0l0,0l0,0.4c0,0.3,0.1,0.5,0.1,0.5l0.3-0.2l-0.4,0.1l0.3,0.9l0,0.4l-4.8,1.6l0.1-0.2l0,0l0.3-0.8l1.3-1.3
					l1.1-0.9l2.1-1.2l-0.2-0.7L22.1,60h0l-1.6,0.5l0,0l-1.3,0.5l0,0l-4.1,2.2l0.2,0.3l0.3,0.3l1.6-1.6l1-0.9l0.6-0.6l0,0l0.7-0.7
					l1.1-0.8l0.1,0l2-3l0.5-0.3l0.3-0.1l0.3,0.2l0,0l0.8,0.2l0.1,0l0.1,0c0,0,0.7-0.1,0.9-0.1h0h0c0.3,0,0.7-0.1,0.7-0.1l-0.1-0.4
					l0,0.4l1.5-0.1l1.3,0.4l0.1-0.4l-0.4,0c0.1,0.7,0.6,1.2,1.1,1.5c0.5,0.4,1,0.7,1.3,1l0,0c0.5,0.5,0.8,1.2,1.6,1.7
					c0.4,0.2,0.8,0.3,1.1,0.3c0.3,0,0.6,0,0.9,0.1l0,0l0,0c0.1,0,0.3,0.2,0.4,0.4l0.2,0.3c0.1,0.1,0.2,0.2,0.4,0.3l0.2-0.7
					c-0.4-0.2-0.8-0.3-1.3-0.3c-0.4,0-0.8,0.1-1.1,0.4l0,0l0,0c-0.3,0.2-0.5,0.6-0.7,0.8c-0.2,0.3-0.3,0.4-0.5,0.5L32.5,62.5
					l-0.1-0.4L32.5,62.5z"/>
				<path class="st3" d="M19.9,52.5c0.2-0.2,0.4-0.4,0.6-0.6c0.2-0.2,0.5-0.3,0.7-0.4l0.4-0.2c-0.3-0.1-0.7,0.1-1,0.2
					c-0.4,0-0.8,0.1-1.2,0.2c-1.1,0.4-1.7,1.5-2,2.6c-0.2,0.6-0.3,1.5,0,2.1c0.2,0.5,0.7,0.8,1.2,1.2c1,0.6,2.2,1,3.1,1.2
					c0.7,0.2,1.6,0.5,2.3,0.4c0.5-0.1,0.7-0.4,0.9-0.8c0.1-0.2,0.2-0.6,0.1-0.9l-0.2-0.3c-0.4-0.3-0.8-0.5-1.2-0.6
					c-0.6-0.1-1.2-0.3-1.7-0.4c-0.5-0.2-1-0.4-1.5-0.6c-0.4-0.2-0.7-0.7-0.8-1.1L19.4,54c-0.1-0.3,0-0.6,0.1-0.8
					C19.6,52.9,19.8,52.7,19.9,52.5L19.9,52.5z"/>
				<path class="st126" d="M19.9,52.5l0.2,0.2c0.2-0.2,0.4-0.4,0.5-0.6l0,0l0,0c0.1-0.1,0.4-0.2,0.6-0.4h0l0.4-0.2l0.5-0.3L21.7,51
					l-0.3-0.1c-0.4,0-0.6,0.2-0.8,0.2h0h0c-0.4,0-0.8,0.1-1.2,0.3l0,0l0,0c-1.2,0.5-1.9,1.6-2.2,2.8l0.2,0.1l-0.2-0.1
					c-0.1,0.4-0.2,0.8-0.2,1.3c0,0.3,0,0.7,0.2,1v0v0c0.3,0.5,0.7,0.9,1.3,1.3c1,0.6,2.3,1,3.1,1.2l0,0c0.6,0.2,1.3,0.4,2,0.4l0.4,0
					l0,0l0,0c0.6-0.1,0.9-0.5,1.1-1c0.1-0.2,0.2-0.5,0.2-0.8l0-0.2l0,0L25.1,57l0,0l0,0c-0.4-0.4-0.9-0.5-1.4-0.6
					c-0.6-0.1-1.2-0.3-1.7-0.4l0,0c-0.5-0.2-1-0.3-1.5-0.6l0,0c-0.3-0.1-0.6-0.5-0.7-0.9l-0.2,0.1l0.2-0.1l-0.1-0.5L19.4,54l0.2-0.1
					l0-0.1c0-0.2,0.1-0.4,0.1-0.5l0,0c0.1-0.2,0.2-0.4,0.3-0.6l0,0l0,0L19.9,52.5l0.2,0.2L19.9,52.5l-0.2-0.1v0L19.9,52.5l-0.2-0.2
					c-0.2,0.2-0.3,0.4-0.4,0.7v0v0c-0.1,0.2-0.2,0.5-0.2,0.8l0,0.3l0,0l0.1,0.5v0v0c0.2,0.4,0.5,1,1,1.2l0,0l0,0
					c0.5,0.2,1,0.4,1.5,0.6l0,0c0.6,0.2,1.2,0.3,1.8,0.4c0.5,0.1,0.8,0.2,1.1,0.5l0.2-0.2l-0.2,0.1l0.2,0.3l0.2-0.1l-0.3,0l0,0.1
					c0,0.2-0.1,0.5-0.1,0.6c-0.2,0.4-0.3,0.6-0.7,0.7l0,0l0,0l-0.3,0c-0.6,0-1.3-0.2-1.9-0.4l0,0c-0.8-0.2-2.1-0.6-3-1.2
					c-0.5-0.3-0.9-0.7-1.1-1.1v0v0c-0.1-0.2-0.1-0.5-0.1-0.8c0-0.4,0.1-0.8,0.2-1.1l0,0c0.3-1.1,0.8-2.1,1.9-2.4l0,0l0,0
					c0.4-0.1,0.7-0.2,1.1-0.2h0h0c0.3,0,0.6-0.2,0.8-0.2l0.1,0l0.1-0.2L21.5,51L21,51.2l0.1,0.2L21,51.2c-0.2,0.1-0.5,0.2-0.7,0.4
					l0.2,0.2l-0.2-0.2c-0.2,0.2-0.4,0.4-0.6,0.7l0,0l0,0L19.9,52.5z"/>
				<polygon class="st3" points="34.1,61.6 34.7,61.3 35,61.7 33.6,66.8 33.3,67 32.8,66.1 				"/>
				<polygon class="st126" points="34.1,61.6 34.2,61.9 34.6,61.6 34.8,61.8 33.4,66.6 33.4,66.6 33,66.1 34.3,61.7 34.1,61.6 
					34.2,61.9 34.1,61.6 33.8,61.5 32.5,66.2 33,67.1 33.2,67.3 33.7,67 33.8,67 35.3,61.6 34.9,61.1 34.7,61 34,61.4 33.8,61.4 
					33.8,61.5 				"/>
				<path class="st126" d="M27.8,57.8c0.6,0.7,1.4,1.7,1.5,0.5c0.6,0,1.1,0.4,1.5,0.7c-0.2-0.2-0.3-0.5-0.5-0.7
					c-0.2-0.2-0.3-0.3-0.6-0.5c-0.2-0.1-0.4-0.3-0.7-0.4c-0.4-0.2-0.8-0.4-1.2-0.6c-0.4-0.1-1-0.5-1.3-0.3c-0.2,0.1,0,0.1,0.1,0.2
					c0.2,0.1,0.4,0.2,0.6,0.4C27.4,57.3,27.6,57.5,27.8,57.8z"/>
				<path class="st126" d="M27.8,57.8l-0.1,0.1c0.2,0.2,0.4,0.5,0.6,0.7c0.2,0.2,0.4,0.4,0.7,0.4l0.3-0.2c0.1-0.1,0.1-0.3,0.1-0.5
					l-0.1,0l0,0.1c0.5,0,1,0.4,1.5,0.7l0.2-0.2c-0.2-0.1-0.3-0.4-0.5-0.7l0,0c-0.2-0.2-0.3-0.3-0.6-0.5l0,0
					c-0.2-0.1-0.4-0.3-0.7-0.4l-0.1,0.1l0.1-0.1c-0.4-0.2-0.8-0.4-1.2-0.6h0h0c-0.3-0.1-0.7-0.3-1.1-0.3l-0.3,0.1l0,0.1l0-0.1
					l-0.2,0.2l0.1,0.2l0.1,0.1l0,0l0,0c0.2,0.1,0.4,0.2,0.6,0.4l0.1-0.1l-0.1,0.1C27.3,57.4,27.5,57.6,27.8,57.8L27.8,57.8l-0.1,0.1
					L27.8,57.8l0.1-0.1c-0.2-0.2-0.4-0.5-0.5-0.5l0,0l0,0c-0.2-0.1-0.4-0.3-0.6-0.4l0,0l0,0l-0.1-0.1l0,0l-0.1,0.1h0.1l0-0.1
					l-0.1,0.1h0.1h-0.1l0,0.1l0-0.1h-0.1l0,0.1l0,0h0h0l0.2,0c0.3,0,0.8,0.2,1,0.3l0-0.1l0,0.1c0.4,0.2,0.8,0.3,1.2,0.5l0,0
					c0.2,0.1,0.4,0.2,0.7,0.4l0,0l0,0c0.2,0.1,0.4,0.2,0.5,0.4l0,0c0.2,0.2,0.3,0.5,0.5,0.7l0.2-0.2c-0.5-0.3-1-0.7-1.6-0.8l-0.1,0
					l0,0.1c0,0.2-0.1,0.3-0.1,0.4l-0.1,0.1c-0.1,0-0.3-0.1-0.5-0.3C28.3,58.2,28.1,57.9,27.8,57.8L27.8,57.8L27.8,57.8z"/>
			</g>
		</g>
	</g>
	<g>
		<g>
			<path class="st143" d="M70.3,36.8c-0.3-0.1-0.5-0.2-0.8-0.3c0-0.2,0-0.4,0-0.6c0,0,0.1,0,0.1,0c0-0.5,0-0.9,0-1.4
				c0,0-0.1,0-0.1,0c0-0.2,0-0.4,0-0.6c0.3,0,0.6,0,0.9,0c0.2,0,0.3,0,0.4,0.1c0.1,0,0.2,0.1,0.2,0.3c0.1,0.1,0.1,0.3,0.1,0.5
				c0,0.2,0,0.3-0.1,0.4s-0.1,0.2-0.2,0.2c0.1,0.1,0.2,0.2,0.2,0.3s0.1,0.3,0.1,0.5c0,0.2,0,0.4-0.1,0.5c-0.1,0.1-0.2,0.2-0.3,0.2
				C70.6,36.9,70.5,36.9,70.3,36.8z M70.2,34.5c0,0.2,0,0.3,0,0.5c0,0,0.1,0,0.1,0c0.1,0,0.1,0,0.2,0s0-0.1,0-0.2c0-0.1,0-0.1,0-0.2
				C70.4,34.6,70.4,34.5,70.2,34.5C70.2,34.5,70.2,34.5,70.2,34.5z M70.2,35.5c0,0.2,0,0.4,0,0.6c0,0,0.1,0,0.1,0c0.1,0,0.1,0,0.2,0
				c0,0,0.1-0.1,0.1-0.2c0-0.1,0-0.2,0-0.2c0,0-0.1-0.1-0.2-0.1C70.2,35.6,70.2,35.6,70.2,35.5z"/>
			<path class="st143" d="M71.4,34.7c0,0-0.1,0-0.1,0c0-0.3,0-0.5,0-0.8c0.2,0,0.5,0,0.8,0c0,0.3,0,0.5,0,0.8c0,0-0.1,0-0.1,0
				c0,0.4,0,0.8,0,1.1c0,0.3,0,0.5,0,0.6c0,0.1,0.1,0.2,0.1,0.2c0.1,0,0.1,0,0.1-0.1c0-0.1,0-0.2,0-0.5c0-0.4,0-0.8,0-1.2
				c0,0-0.1,0-0.1,0c0-0.3,0-0.5,0-0.8c0.2,0,0.4,0,0.6,0c0,0.3,0,0.5,0,0.8c0,0-0.1,0-0.1,0c0,0.4,0,0.8,0,1.2c0,0.3,0,0.6-0.1,0.8
				s-0.1,0.3-0.2,0.5c-0.1,0.1-0.2,0.1-0.3,0.1c-0.1,0-0.2-0.1-0.3-0.1c-0.1-0.1-0.2-0.2-0.2-0.3c-0.1-0.1-0.1-0.3-0.1-0.4
				s0-0.4,0-0.7C71.4,35.3,71.4,35,71.4,34.7z"/>
			<path class="st143" d="M74.3,37.3c-0.5,0-1,0.1-1.4,0c0-0.3,0-0.5,0-0.8c0,0,0.1,0,0.1,0c0-0.6,0-1.2,0-1.8c0,0-0.1,0-0.1,0
				c0-0.3,0-0.5,0-0.8c0.3,0,0.6,0,0.8,0c0,0.3,0,0.5,0,0.8c-0.1,0-0.1,0-0.1,0c0,0.6,0,1.2,0,1.8c0.1,0,0.2,0,0.3,0
				c0-0.2,0-0.4,0-0.5c0.1,0,0.2,0,0.4,0C74.3,36.4,74.3,36.8,74.3,37.3z"/>
			<path class="st143" d="M75.8,37c-0.5,0.1-0.9,0.2-1.4,0.3c0-0.3,0-0.5,0-0.8c0,0,0.1,0,0.1,0c0-0.6,0-1.2,0-1.8c0,0-0.1,0-0.1,0
				c0-0.3,0-0.5,0-0.8c0.3,0,0.6,0,0.8,0c0,0.3,0,0.5,0,0.8c-0.1,0-0.1,0-0.1,0c0,0.6,0,1.1,0,1.7c0.1,0,0.2,0,0.3-0.1
				c0-0.2,0-0.3,0-0.5c0.1,0,0.2,0,0.3-0.1C75.8,36.1,75.8,36.5,75.8,37z"/>
			<path class="st143" d="M76.3,36.8c-0.1,0-0.2,0.1-0.3,0.1c0-0.3,0-0.7,0-1c0.1,0,0.2,0,0.3-0.1c0,0.2,0.1,0.3,0.2,0.3
				c0.1,0,0.1-0.1,0.1-0.2c0-0.1,0-0.1,0-0.2s-0.1-0.1-0.2-0.2c-0.1-0.1-0.2-0.2-0.3-0.2s-0.1-0.2-0.1-0.3S76,34.9,76,34.7
				c0-0.3,0-0.5,0.1-0.7c0.1-0.2,0.2-0.2,0.3-0.2s0.2,0.1,0.3,0.2c0-0.1,0-0.1,0-0.2c0.1,0,0.2,0,0.3,0c0,0.2,0,0.5,0,0.8
				c-0.1,0-0.2,0-0.3,0c0-0.2-0.1-0.3-0.2-0.3c-0.1,0-0.1,0.1-0.1,0.2c0,0.1,0,0.1,0,0.1c0,0,0.1,0.1,0.2,0.2
				c0.1,0.1,0.2,0.2,0.3,0.2c0,0,0.1,0.1,0.1,0.1s0.1,0.1,0.1,0.2c0,0.1,0.1,0.2,0.1,0.4c0,0.2,0,0.4-0.1,0.6
				c-0.1,0.2-0.2,0.3-0.3,0.4c-0.1,0-0.2,0-0.3-0.1C76.3,36.7,76.3,36.7,76.3,36.8z"/>
		</g>
	</g>
</g>
<g id="Layer_3">
	<rect x="43" y="43" class="st10" width="61.9" height="50.8"/>
	<text transform="matrix(1 0 0 1 59.9336 76.123)" class="st144 st145 st146">8</text>
	<text transform="matrix(1 0 0 1 59.9336 76.123)" class="st147 st145 st146">8</text>
	<g>
		<g>
			<defs>
				<path id="SVGID_00000159431923226145911920000009209651974251085743_" d="M61.1,10.8l-0.2,0.1l-19.2,6.3c0,0-4.1,1.4-7.8,12.6
					l3.9,5.2l3.7,6.2l2.2,34.8l0.4,19.8c0.2,6.8,0.3,13.7,0.5,20.6c0,2.9,0.1,5.8,0.2,8.6c0,1.1,0,2.1,0.1,3.1
					c0,1.3-0.3,2.5-0.3,3.8c4.5,0.2,8.8,0.8,13.3,0.8c4,0,7.6-0.6,11.5-0.6c3.8,0,7.4-0.7,11.2-0.3c2,0.2,4,0.4,6,0.4
					c2.2,0,4.3,0.6,6.6,0.7c2.4,0.1,4.7-0.1,7-0.2c0.8,0,1.6,0,2.4,0.1c0.9,0.1,1.8,0.2,2.7,0.1c1-0.1,1-8.4,1-9.4
					c-0.1-2.6-0.1-5.2-0.2-7.7c-0.1-5.6-0.2-11.3-0.3-16.9c-0.1-5.2-0.2-10.4-0.3-15.6l-2.3-37.9l0.2-6l3.9-4.3l6.2-4.3l2.1-2.7
					c0,0-1-7.8-8.2-11.1c-7.2-3.3-18.9-5.8-18.9-5.8l-5.2,11.7l-8.4,6l-10.1-7.4L61.1,10.8"/>
			</defs>
			<clipPath id="SVGID_00000031913157093211533900000005914116325708016026_">
				<use xlink:href="#SVGID_00000159431923226145911920000009209651974251085743_"  style="overflow:visible;"/>
			</clipPath>
			<g style="clip-path:url(#SVGID_00000031913157093211533900000005914116325708016026_);">
				
					<rect x="35.1" y="9.8" transform="matrix(0.9513 -0.3082 0.3082 0.9513 -4.6604 15.0762)" class="st10" width="20.5" height="25"/>
				<text transform="matrix(0.3082 0.9513 -0.9513 0.3082 38.9828 17.7104)" class="st144 st149 st150">8</text>
				<text transform="matrix(0.3082 0.9513 -0.9513 0.3082 38.9828 17.7104)" class="st151 st149 st150">8</text>
			</g>
		</g>
		<g>
			<defs>
				<path id="SVGID_00000122702225971429660020000003998434285732665241_" d="M61.1,10.8l-0.2,0.1l-19.2,6.3c0,0-4.1,1.4-7.8,12.6
					l3.9,5.2l3.7,6.2l2.2,34.8l0.4,19.8c0.2,6.8,0.3,13.7,0.5,20.6c0,2.9,0.1,5.8,0.2,8.6c0,1.1,0,2.1,0.1,3.1
					c0,1.3-0.3,2.5-0.3,3.8c4.5,0.2,8.8,0.8,13.3,0.8c4,0,7.6-0.6,11.5-0.6c3.8,0,7.4-0.7,11.2-0.3c2,0.2,4,0.4,6,0.4
					c2.2,0,4.3,0.6,6.6,0.7c2.4,0.1,4.7-0.1,7-0.2c0.8,0,1.6,0,2.4,0.1c0.9,0.1,1.8,0.2,2.7,0.1c1-0.1,1-8.4,1-9.4
					c-0.1-2.6-0.1-5.2-0.2-7.7c-0.1-5.6-0.2-11.3-0.3-16.9c-0.1-5.2-0.2-10.4-0.3-15.6l-2.3-37.9l0.2-6l3.9-4.3l6.2-4.3l2.1-2.7
					c0,0-1-7.8-8.2-11.1c-7.2-3.3-18.9-5.8-18.9-5.8l-5.2,11.7l-8.4,6l-10.1-7.4L61.1,10.8"/>
			</defs>
			<clipPath id="SVGID_00000015318958620237866020000016981852727065365125_">
				<use xlink:href="#SVGID_00000122702225971429660020000003998434285732665241_"  style="overflow:visible;"/>
			</clipPath>
			<g style="clip-path:url(#SVGID_00000015318958620237866020000016981852727065365125_);">
				
					<rect x="90.5" y="11.2" transform="matrix(0.367 -0.9302 0.9302 0.367 45.2317 109.4169)" class="st10" width="25" height="20.5"/>
				<text transform="matrix(0.367 -0.9302 0.9302 0.367 105.3094 29.3338)" class="st144 st149 st153">8</text>
				<text transform="matrix(0.367 -0.9302 0.9302 0.367 105.3094 29.3338)" class="st151 st149 st153">8</text>
			</g>
		</g>
	</g>
</g>
</svg>
